%TF.GenerationSoftware,KiCad,Pcbnew,10.0.5*%
%TF.CreationDate,2026-08-16T16:45:00+01:00*%
%TF.ProjectId,StudyWithKey,53747564-7957-4697-9468-4b65792e6b69,rev?*%
%TF.SameCoordinates,Original*%
%TF.FileFunction,Copper,L2,Bot*%
%TF.FilePolarity,Positive*%
%FSLAX46Y46*%
G04 Gerber Fmt 4.6, Leading zero omitted, Abs format (unit mm)*
G04 Created by KiCad (PCBNEW 10.0.5) date 2026-08-16 16:45:00*
%MOMM*%
%LPD*%
G01*
G04 APERTURE LIST*
%TA.AperFunction,HeatsinkPad*%
%ADD10C,0.600000*%
%TD*%
%TA.AperFunction,ComponentPad*%
%ADD11O,1.000000X2.100000*%
%TD*%
%TA.AperFunction,ComponentPad*%
%ADD12O,1.000000X1.600000*%
%TD*%
%TA.AperFunction,ViaPad*%
%ADD13C,0.600000*%
%TD*%
%TA.AperFunction,Conductor*%
%ADD14C,0.200000*%
%TD*%
G04 APERTURE END LIST*
D10*
%TO.P,U1,41,GND_41*%
%TO.N,GND*%
X124850000Y-46900000D03*
X124850000Y-48300000D03*
X125550000Y-46200000D03*
X125550000Y-47600000D03*
X125550000Y-49000000D03*
X126250000Y-46900000D03*
X126250000Y-48300000D03*
X126950000Y-46200000D03*
X126950000Y-47600000D03*
X126950000Y-49000000D03*
X127650000Y-46900000D03*
X127650000Y-48300000D03*
%TD*%
D11*
%TO.P,J1,SH,SHIELD_SH*%
%TO.N,unconnected-(J1-SHIELD-PadSH)*%
X104360000Y-68000000D03*
D12*
%TO.N,unconnected-(J1-SHIELD-PadSH)_2*%
X104360000Y-72180000D03*
D11*
%TO.N,unconnected-(J1-SHIELD-PadSH)_3*%
X113000000Y-68000000D03*
D12*
%TO.N,unconnected-(J1-SHIELD-PadSH)_1*%
X113000000Y-72180000D03*
%TD*%
D13*
%TO.N,GND*%
X134500000Y-68500000D03*
X128500000Y-68500000D03*
%TO.N,Net-(U1-IO42)*%
X155500000Y-56500000D03*
X158000000Y-56500000D03*
%TO.N,Net-(U1-IO1)*%
X154500000Y-69500000D03*
X156500000Y-69500000D03*
%TO.N,Net-(U1-IO40)*%
X154900000Y-81500000D03*
X158000000Y-81500000D03*
%TO.N,GND*%
X140500000Y-80500000D03*
X150500000Y-77000000D03*
%TO.N,Net-(U1-3V3)*%
X115500000Y-71000000D03*
X115500000Y-45000000D03*
%TO.N,Net-(U2-VI)*%
X119000000Y-81000000D03*
X119000000Y-88500000D03*
X116500000Y-77500000D03*
X113000000Y-77500000D03*
%TO.N,Net-(U1-EN)*%
X129000000Y-71000000D03*
X117000000Y-47000000D03*
%TO.N,Net-(U1-IO0)*%
X143000000Y-55000000D03*
X137000000Y-62000000D03*
%TO.N,Net-(J1-CC1)*%
X110000000Y-64000000D03*
X107830000Y-64000000D03*
%TO.N,Net-(U1-USB_D+)*%
X108330000Y-56500000D03*
X110000000Y-56500000D03*
%TO.N,Net-(U1-IO1)*%
X143500000Y-61000000D03*
X139000000Y-43500000D03*
%TO.N,GND*%
X126250000Y-47600000D03*
%TD*%
%TO.N,GND*%
D14*
X128500000Y-68500000D02*
X134500000Y-68500000D01*
%TO.N,Net-(U1-IO42)*%
X158000000Y-56500000D02*
X155500000Y-56500000D01*
%TO.N,Net-(U1-IO1)*%
X156500000Y-69500000D02*
X154500000Y-69500000D01*
%TO.N,Net-(U1-IO40)*%
X158000000Y-81500000D02*
X154900000Y-81500000D01*
%TO.N,GND*%
X144000000Y-77000000D02*
X140500000Y-80500000D01*
X150500000Y-77000000D02*
X144000000Y-77000000D01*
%TO.N,Net-(U1-3V3)*%
X115500000Y-71000000D02*
X115500000Y-45000000D01*
%TO.N,Net-(U2-VI)*%
X119000000Y-81000000D02*
X119000000Y-88500000D01*
X113000000Y-77500000D02*
X116500000Y-77500000D01*
%TO.N,Net-(U1-EN)*%
X117000000Y-59000000D02*
X129000000Y-71000000D01*
X117000000Y-47000000D02*
X117000000Y-59000000D01*
%TO.N,Net-(U1-IO0)*%
X143000000Y-55000000D02*
X144100000Y-56100000D01*
X143348529Y-62000000D02*
X137000000Y-62000000D01*
X144100000Y-56100000D02*
X144100000Y-61248529D01*
X144100000Y-61248529D02*
X143348529Y-62000000D01*
%TO.N,Net-(J1-CC1)*%
X107830000Y-64000000D02*
X110000000Y-64000000D01*
%TO.N,Net-(U1-USB_D+)*%
X108330000Y-56500000D02*
X110000000Y-56500000D01*
%TO.N,Net-(U1-IO1)*%
X139000000Y-56500000D02*
X139000000Y-43500000D01*
X143500000Y-61000000D02*
X139000000Y-56500000D01*
%TD*%
%TA.AperFunction,Conductor*%
%TO.N,GND*%
G36*
X161942539Y-39020185D02*
G01*
X161988294Y-39072989D01*
X161999500Y-39124500D01*
X161999500Y-97375500D01*
X161979815Y-97442539D01*
X161927011Y-97488294D01*
X161875500Y-97499500D01*
X102624500Y-97499500D01*
X102557461Y-97479815D01*
X102511706Y-97427011D01*
X102500500Y-97375500D01*
X102500500Y-80921153D01*
X118199500Y-80921153D01*
X118199500Y-81078846D01*
X118230261Y-81233489D01*
X118230264Y-81233501D01*
X118290602Y-81379172D01*
X118290609Y-81379185D01*
X118378602Y-81510874D01*
X118399480Y-81577551D01*
X118399500Y-81579765D01*
X118399500Y-87920234D01*
X118379815Y-87987273D01*
X118378602Y-87989125D01*
X118290609Y-88120814D01*
X118290602Y-88120827D01*
X118230264Y-88266498D01*
X118230261Y-88266510D01*
X118199500Y-88421153D01*
X118199500Y-88578846D01*
X118230261Y-88733489D01*
X118230264Y-88733501D01*
X118290602Y-88879172D01*
X118290609Y-88879185D01*
X118378210Y-89010288D01*
X118378213Y-89010292D01*
X118489707Y-89121786D01*
X118489711Y-89121789D01*
X118620814Y-89209390D01*
X118620827Y-89209397D01*
X118766498Y-89269735D01*
X118766503Y-89269737D01*
X118921153Y-89300499D01*
X118921156Y-89300500D01*
X118921158Y-89300500D01*
X119078844Y-89300500D01*
X119078845Y-89300499D01*
X119233497Y-89269737D01*
X119379179Y-89209394D01*
X119510289Y-89121789D01*
X119621789Y-89010289D01*
X119709394Y-88879179D01*
X119769737Y-88733497D01*
X119800500Y-88578842D01*
X119800500Y-88421158D01*
X119800500Y-88421155D01*
X119800499Y-88421153D01*
X119769738Y-88266510D01*
X119769737Y-88266503D01*
X119769735Y-88266498D01*
X119709397Y-88120827D01*
X119709390Y-88120814D01*
X119621398Y-87989125D01*
X119600520Y-87922447D01*
X119600500Y-87920234D01*
X119600500Y-81579765D01*
X119605403Y-81562848D01*
X119605285Y-81545652D01*
X119618918Y-81516225D01*
X119619724Y-81513447D01*
X119621608Y-81510469D01*
X119621789Y-81510289D01*
X119681348Y-81421153D01*
X154099500Y-81421153D01*
X154099500Y-81578846D01*
X154130261Y-81733489D01*
X154130264Y-81733501D01*
X154190602Y-81879172D01*
X154190609Y-81879185D01*
X154278210Y-82010288D01*
X154278213Y-82010292D01*
X154389707Y-82121786D01*
X154389711Y-82121789D01*
X154520814Y-82209390D01*
X154520827Y-82209397D01*
X154666498Y-82269735D01*
X154666503Y-82269737D01*
X154821153Y-82300499D01*
X154821156Y-82300500D01*
X154821158Y-82300500D01*
X154978844Y-82300500D01*
X154978845Y-82300499D01*
X155133497Y-82269737D01*
X155279179Y-82209394D01*
X155279185Y-82209390D01*
X155410875Y-82121398D01*
X155477553Y-82100520D01*
X155479766Y-82100500D01*
X157420234Y-82100500D01*
X157487273Y-82120185D01*
X157489125Y-82121398D01*
X157620814Y-82209390D01*
X157620827Y-82209397D01*
X157766498Y-82269735D01*
X157766503Y-82269737D01*
X157921153Y-82300499D01*
X157921156Y-82300500D01*
X157921158Y-82300500D01*
X158078844Y-82300500D01*
X158078845Y-82300499D01*
X158233497Y-82269737D01*
X158379179Y-82209394D01*
X158510289Y-82121789D01*
X158621789Y-82010289D01*
X158709394Y-81879179D01*
X158769737Y-81733497D01*
X158800500Y-81578842D01*
X158800500Y-81421158D01*
X158800500Y-81421155D01*
X158800499Y-81421153D01*
X158769738Y-81266510D01*
X158769737Y-81266503D01*
X158756062Y-81233489D01*
X158709397Y-81120827D01*
X158709390Y-81120814D01*
X158621789Y-80989711D01*
X158621786Y-80989707D01*
X158510292Y-80878213D01*
X158510288Y-80878210D01*
X158379185Y-80790609D01*
X158379172Y-80790602D01*
X158233501Y-80730264D01*
X158233489Y-80730261D01*
X158078845Y-80699500D01*
X158078842Y-80699500D01*
X157921158Y-80699500D01*
X157921155Y-80699500D01*
X157766510Y-80730261D01*
X157766498Y-80730264D01*
X157620827Y-80790602D01*
X157620814Y-80790609D01*
X157489125Y-80878602D01*
X157422447Y-80899480D01*
X157420234Y-80899500D01*
X155479766Y-80899500D01*
X155412727Y-80879815D01*
X155410875Y-80878602D01*
X155279185Y-80790609D01*
X155279172Y-80790602D01*
X155133501Y-80730264D01*
X155133489Y-80730261D01*
X154978845Y-80699500D01*
X154978842Y-80699500D01*
X154821158Y-80699500D01*
X154821155Y-80699500D01*
X154666510Y-80730261D01*
X154666498Y-80730264D01*
X154520827Y-80790602D01*
X154520814Y-80790609D01*
X154389711Y-80878210D01*
X154389707Y-80878213D01*
X154278213Y-80989707D01*
X154278210Y-80989711D01*
X154190609Y-81120814D01*
X154190602Y-81120827D01*
X154130264Y-81266498D01*
X154130261Y-81266510D01*
X154099500Y-81421153D01*
X119681348Y-81421153D01*
X119709394Y-81379179D01*
X119769737Y-81233497D01*
X119800500Y-81078842D01*
X119800500Y-80921158D01*
X119800500Y-80921155D01*
X119800499Y-80921153D01*
X119774531Y-80790606D01*
X119769737Y-80766503D01*
X119769735Y-80766498D01*
X119709397Y-80620827D01*
X119709390Y-80620814D01*
X119621789Y-80489711D01*
X119621786Y-80489707D01*
X119510292Y-80378213D01*
X119510288Y-80378210D01*
X119379185Y-80290609D01*
X119379172Y-80290602D01*
X119233501Y-80230264D01*
X119233489Y-80230261D01*
X119078845Y-80199500D01*
X119078842Y-80199500D01*
X118921158Y-80199500D01*
X118921155Y-80199500D01*
X118766510Y-80230261D01*
X118766498Y-80230264D01*
X118620827Y-80290602D01*
X118620814Y-80290609D01*
X118489711Y-80378210D01*
X118489707Y-80378213D01*
X118378213Y-80489707D01*
X118378210Y-80489711D01*
X118290609Y-80620814D01*
X118290602Y-80620827D01*
X118230264Y-80766498D01*
X118230261Y-80766510D01*
X118199500Y-80921153D01*
X102500500Y-80921153D01*
X102500500Y-77421153D01*
X112199500Y-77421153D01*
X112199500Y-77578846D01*
X112230261Y-77733489D01*
X112230264Y-77733501D01*
X112290602Y-77879172D01*
X112290609Y-77879185D01*
X112378210Y-78010288D01*
X112378213Y-78010292D01*
X112489707Y-78121786D01*
X112489711Y-78121789D01*
X112620814Y-78209390D01*
X112620827Y-78209397D01*
X112766498Y-78269735D01*
X112766503Y-78269737D01*
X112921153Y-78300499D01*
X112921156Y-78300500D01*
X112921158Y-78300500D01*
X113078844Y-78300500D01*
X113078845Y-78300499D01*
X113233497Y-78269737D01*
X113379179Y-78209394D01*
X113379185Y-78209390D01*
X113510875Y-78121398D01*
X113577553Y-78100520D01*
X113579766Y-78100500D01*
X115920234Y-78100500D01*
X115987273Y-78120185D01*
X115989125Y-78121398D01*
X116120814Y-78209390D01*
X116120827Y-78209397D01*
X116266498Y-78269735D01*
X116266503Y-78269737D01*
X116421153Y-78300499D01*
X116421156Y-78300500D01*
X116421158Y-78300500D01*
X116578844Y-78300500D01*
X116578845Y-78300499D01*
X116733497Y-78269737D01*
X116879179Y-78209394D01*
X117010289Y-78121789D01*
X117121789Y-78010289D01*
X117209394Y-77879179D01*
X117269737Y-77733497D01*
X117300500Y-77578842D01*
X117300500Y-77421158D01*
X117300500Y-77421155D01*
X117300499Y-77421153D01*
X117269738Y-77266510D01*
X117269737Y-77266503D01*
X117269735Y-77266498D01*
X117209397Y-77120827D01*
X117209390Y-77120814D01*
X117121789Y-76989711D01*
X117121786Y-76989707D01*
X117010292Y-76878213D01*
X117010288Y-76878210D01*
X116879185Y-76790609D01*
X116879172Y-76790602D01*
X116733501Y-76730264D01*
X116733489Y-76730261D01*
X116578845Y-76699500D01*
X116578842Y-76699500D01*
X116421158Y-76699500D01*
X116421155Y-76699500D01*
X116266510Y-76730261D01*
X116266498Y-76730264D01*
X116120827Y-76790602D01*
X116120814Y-76790609D01*
X115989125Y-76878602D01*
X115922447Y-76899480D01*
X115920234Y-76899500D01*
X113579766Y-76899500D01*
X113512727Y-76879815D01*
X113510875Y-76878602D01*
X113379185Y-76790609D01*
X113379172Y-76790602D01*
X113233501Y-76730264D01*
X113233489Y-76730261D01*
X113078845Y-76699500D01*
X113078842Y-76699500D01*
X112921158Y-76699500D01*
X112921155Y-76699500D01*
X112766510Y-76730261D01*
X112766498Y-76730264D01*
X112620827Y-76790602D01*
X112620814Y-76790609D01*
X112489711Y-76878210D01*
X112489707Y-76878213D01*
X112378213Y-76989707D01*
X112378210Y-76989711D01*
X112290609Y-77120814D01*
X112290602Y-77120827D01*
X112230264Y-77266498D01*
X112230261Y-77266510D01*
X112199500Y-77421153D01*
X102500500Y-77421153D01*
X102500500Y-72578543D01*
X103359499Y-72578543D01*
X103397947Y-72771829D01*
X103397950Y-72771839D01*
X103473364Y-72953907D01*
X103473371Y-72953920D01*
X103582860Y-73117781D01*
X103582863Y-73117785D01*
X103722214Y-73257136D01*
X103722218Y-73257139D01*
X103886079Y-73366628D01*
X103886092Y-73366635D01*
X104068160Y-73442049D01*
X104068165Y-73442051D01*
X104068169Y-73442051D01*
X104068170Y-73442052D01*
X104261456Y-73480500D01*
X104261459Y-73480500D01*
X104458543Y-73480500D01*
X104588582Y-73454632D01*
X104651835Y-73442051D01*
X104833914Y-73366632D01*
X104997782Y-73257139D01*
X105137139Y-73117782D01*
X105246632Y-72953914D01*
X105322051Y-72771835D01*
X105360500Y-72578543D01*
X111999499Y-72578543D01*
X112037947Y-72771829D01*
X112037950Y-72771839D01*
X112113364Y-72953907D01*
X112113371Y-72953920D01*
X112222860Y-73117781D01*
X112222863Y-73117785D01*
X112362214Y-73257136D01*
X112362218Y-73257139D01*
X112526079Y-73366628D01*
X112526092Y-73366635D01*
X112708160Y-73442049D01*
X112708165Y-73442051D01*
X112708169Y-73442051D01*
X112708170Y-73442052D01*
X112901456Y-73480500D01*
X112901459Y-73480500D01*
X113098543Y-73480500D01*
X113228582Y-73454632D01*
X113291835Y-73442051D01*
X113473914Y-73366632D01*
X113637782Y-73257139D01*
X113777139Y-73117782D01*
X113886632Y-72953914D01*
X113962051Y-72771835D01*
X114000500Y-72578541D01*
X114000500Y-71781459D01*
X114000500Y-71781456D01*
X113962052Y-71588170D01*
X113962051Y-71588169D01*
X113962051Y-71588165D01*
X113929794Y-71510288D01*
X113886635Y-71406092D01*
X113886628Y-71406079D01*
X113777139Y-71242218D01*
X113777136Y-71242214D01*
X113637785Y-71102863D01*
X113637781Y-71102860D01*
X113473920Y-70993371D01*
X113473907Y-70993364D01*
X113291839Y-70917950D01*
X113291829Y-70917947D01*
X113098543Y-70879500D01*
X113098541Y-70879500D01*
X112901459Y-70879500D01*
X112901457Y-70879500D01*
X112708170Y-70917947D01*
X112708160Y-70917950D01*
X112526092Y-70993364D01*
X112526079Y-70993371D01*
X112362218Y-71102860D01*
X112362214Y-71102863D01*
X112222863Y-71242214D01*
X112222860Y-71242218D01*
X112113371Y-71406079D01*
X112113364Y-71406092D01*
X112037950Y-71588160D01*
X112037947Y-71588170D01*
X111999500Y-71781456D01*
X111999500Y-71781459D01*
X111999500Y-72578541D01*
X111999500Y-72578543D01*
X111999499Y-72578543D01*
X105360500Y-72578543D01*
X105360500Y-72578541D01*
X105360500Y-71781459D01*
X105360500Y-71781456D01*
X105322052Y-71588170D01*
X105322051Y-71588169D01*
X105322051Y-71588165D01*
X105289794Y-71510288D01*
X105246635Y-71406092D01*
X105246628Y-71406079D01*
X105137139Y-71242218D01*
X105137136Y-71242214D01*
X104997785Y-71102863D01*
X104997781Y-71102860D01*
X104833920Y-70993371D01*
X104833907Y-70993364D01*
X104651839Y-70917950D01*
X104651829Y-70917947D01*
X104458543Y-70879500D01*
X104458541Y-70879500D01*
X104261459Y-70879500D01*
X104261457Y-70879500D01*
X104068170Y-70917947D01*
X104068160Y-70917950D01*
X103886092Y-70993364D01*
X103886079Y-70993371D01*
X103722218Y-71102860D01*
X103722214Y-71102863D01*
X103582863Y-71242214D01*
X103582860Y-71242218D01*
X103473371Y-71406079D01*
X103473364Y-71406092D01*
X103397950Y-71588160D01*
X103397947Y-71588170D01*
X103359500Y-71781456D01*
X103359500Y-71781459D01*
X103359500Y-72578541D01*
X103359500Y-72578543D01*
X103359499Y-72578543D01*
X102500500Y-72578543D01*
X102500500Y-68648543D01*
X103359499Y-68648543D01*
X103397947Y-68841829D01*
X103397950Y-68841839D01*
X103473364Y-69023907D01*
X103473371Y-69023920D01*
X103582860Y-69187781D01*
X103582863Y-69187785D01*
X103722214Y-69327136D01*
X103722218Y-69327139D01*
X103886079Y-69436628D01*
X103886092Y-69436635D01*
X104068160Y-69512049D01*
X104068165Y-69512051D01*
X104068169Y-69512051D01*
X104068170Y-69512052D01*
X104261456Y-69550500D01*
X104261459Y-69550500D01*
X104458543Y-69550500D01*
X104588582Y-69524632D01*
X104651835Y-69512051D01*
X104833914Y-69436632D01*
X104997782Y-69327139D01*
X105137139Y-69187782D01*
X105246632Y-69023914D01*
X105246631Y-69023914D01*
X105250017Y-69018848D01*
X105251474Y-69019821D01*
X105294595Y-68975903D01*
X105362729Y-68960426D01*
X105428414Y-68984242D01*
X105430502Y-68985809D01*
X105436632Y-68990512D01*
X105436635Y-68990515D01*
X105567865Y-69066281D01*
X105714234Y-69105500D01*
X105714236Y-69105500D01*
X105865764Y-69105500D01*
X105865766Y-69105500D01*
X106012135Y-69066281D01*
X106143365Y-68990515D01*
X106250515Y-68883365D01*
X106326281Y-68752135D01*
X106365500Y-68605766D01*
X106365500Y-68454234D01*
X110994500Y-68454234D01*
X110994500Y-68605766D01*
X111005962Y-68648543D01*
X111033719Y-68752136D01*
X111055928Y-68790602D01*
X111109485Y-68883365D01*
X111216635Y-68990515D01*
X111347865Y-69066281D01*
X111494234Y-69105500D01*
X111494236Y-69105500D01*
X111645764Y-69105500D01*
X111645766Y-69105500D01*
X111792135Y-69066281D01*
X111923365Y-68990515D01*
X111923374Y-68990505D01*
X111929488Y-68985815D01*
X111994656Y-68960617D01*
X112063101Y-68974650D01*
X112109025Y-69019488D01*
X112109983Y-69018849D01*
X112113009Y-69023378D01*
X112113094Y-69023461D01*
X112113228Y-69023706D01*
X112222860Y-69187781D01*
X112222863Y-69187785D01*
X112362214Y-69327136D01*
X112362218Y-69327139D01*
X112526079Y-69436628D01*
X112526092Y-69436635D01*
X112708160Y-69512049D01*
X112708165Y-69512051D01*
X112708169Y-69512051D01*
X112708170Y-69512052D01*
X112901456Y-69550500D01*
X112901459Y-69550500D01*
X113098543Y-69550500D01*
X113228582Y-69524632D01*
X113291835Y-69512051D01*
X113473914Y-69436632D01*
X113637782Y-69327139D01*
X113777139Y-69187782D01*
X113886632Y-69023914D01*
X113962051Y-68841835D01*
X113974632Y-68778582D01*
X114000500Y-68648543D01*
X114000500Y-67351456D01*
X113962052Y-67158170D01*
X113962051Y-67158169D01*
X113962051Y-67158165D01*
X113962049Y-67158160D01*
X113886635Y-66976092D01*
X113886628Y-66976079D01*
X113777139Y-66812218D01*
X113777136Y-66812214D01*
X113637785Y-66672863D01*
X113637781Y-66672860D01*
X113473920Y-66563371D01*
X113473907Y-66563364D01*
X113291839Y-66487950D01*
X113291829Y-66487947D01*
X113098543Y-66449500D01*
X113098541Y-66449500D01*
X112901459Y-66449500D01*
X112901457Y-66449500D01*
X112708170Y-66487947D01*
X112708160Y-66487950D01*
X112526092Y-66563364D01*
X112526079Y-66563371D01*
X112362218Y-66672860D01*
X112362214Y-66672863D01*
X112222863Y-66812214D01*
X112222860Y-66812218D01*
X112113371Y-66976079D01*
X112113364Y-66976092D01*
X112037950Y-67158160D01*
X112037947Y-67158170D01*
X111999500Y-67351456D01*
X111999500Y-67898666D01*
X111979815Y-67965705D01*
X111927011Y-68011460D01*
X111857853Y-68021404D01*
X111813501Y-68006054D01*
X111792137Y-67993719D01*
X111687584Y-67965705D01*
X111645766Y-67954500D01*
X111494234Y-67954500D01*
X111347863Y-67993719D01*
X111216635Y-68069485D01*
X111216632Y-68069487D01*
X111109487Y-68176632D01*
X111109485Y-68176635D01*
X111033719Y-68307863D01*
X110994500Y-68454234D01*
X106365500Y-68454234D01*
X106326281Y-68307865D01*
X106250515Y-68176635D01*
X106143365Y-68069485D01*
X106060087Y-68021404D01*
X106012136Y-67993719D01*
X105907584Y-67965705D01*
X105865766Y-67954500D01*
X105714234Y-67954500D01*
X105567862Y-67993719D01*
X105546499Y-68006054D01*
X105478598Y-68022525D01*
X105412572Y-67999673D01*
X105369382Y-67944751D01*
X105360500Y-67898666D01*
X105360500Y-67351456D01*
X105322052Y-67158170D01*
X105322051Y-67158169D01*
X105322051Y-67158165D01*
X105322049Y-67158160D01*
X105246635Y-66976092D01*
X105246628Y-66976079D01*
X105137139Y-66812218D01*
X105137136Y-66812214D01*
X104997785Y-66672863D01*
X104997781Y-66672860D01*
X104833920Y-66563371D01*
X104833907Y-66563364D01*
X104651839Y-66487950D01*
X104651829Y-66487947D01*
X104458543Y-66449500D01*
X104458541Y-66449500D01*
X104261459Y-66449500D01*
X104261457Y-66449500D01*
X104068170Y-66487947D01*
X104068160Y-66487950D01*
X103886092Y-66563364D01*
X103886079Y-66563371D01*
X103722218Y-66672860D01*
X103722214Y-66672863D01*
X103582863Y-66812214D01*
X103582860Y-66812218D01*
X103473371Y-66976079D01*
X103473364Y-66976092D01*
X103397950Y-67158160D01*
X103397947Y-67158170D01*
X103359500Y-67351456D01*
X103359500Y-67351459D01*
X103359500Y-68648541D01*
X103359500Y-68648543D01*
X103359499Y-68648543D01*
X102500500Y-68648543D01*
X102500500Y-63921153D01*
X107029500Y-63921153D01*
X107029500Y-64078846D01*
X107060261Y-64233489D01*
X107060264Y-64233501D01*
X107120602Y-64379172D01*
X107120609Y-64379185D01*
X107208210Y-64510288D01*
X107208213Y-64510292D01*
X107319707Y-64621786D01*
X107319711Y-64621789D01*
X107450814Y-64709390D01*
X107450827Y-64709397D01*
X107596498Y-64769735D01*
X107596503Y-64769737D01*
X107751153Y-64800499D01*
X107751156Y-64800500D01*
X107751158Y-64800500D01*
X107908844Y-64800500D01*
X107908845Y-64800499D01*
X108063497Y-64769737D01*
X108209179Y-64709394D01*
X108209185Y-64709390D01*
X108340875Y-64621398D01*
X108407553Y-64600520D01*
X108409766Y-64600500D01*
X109420234Y-64600500D01*
X109487273Y-64620185D01*
X109489125Y-64621398D01*
X109620814Y-64709390D01*
X109620827Y-64709397D01*
X109766498Y-64769735D01*
X109766503Y-64769737D01*
X109921153Y-64800499D01*
X109921156Y-64800500D01*
X109921158Y-64800500D01*
X110078844Y-64800500D01*
X110078845Y-64800499D01*
X110233497Y-64769737D01*
X110379179Y-64709394D01*
X110510289Y-64621789D01*
X110621789Y-64510289D01*
X110709394Y-64379179D01*
X110769737Y-64233497D01*
X110800500Y-64078842D01*
X110800500Y-63921158D01*
X110800500Y-63921155D01*
X110800499Y-63921153D01*
X110769738Y-63766510D01*
X110769737Y-63766503D01*
X110769735Y-63766498D01*
X110709397Y-63620827D01*
X110709390Y-63620814D01*
X110621789Y-63489711D01*
X110621786Y-63489707D01*
X110510292Y-63378213D01*
X110510288Y-63378210D01*
X110379185Y-63290609D01*
X110379172Y-63290602D01*
X110233501Y-63230264D01*
X110233489Y-63230261D01*
X110078845Y-63199500D01*
X110078842Y-63199500D01*
X109921158Y-63199500D01*
X109921155Y-63199500D01*
X109766510Y-63230261D01*
X109766498Y-63230264D01*
X109620827Y-63290602D01*
X109620814Y-63290609D01*
X109489125Y-63378602D01*
X109422447Y-63399480D01*
X109420234Y-63399500D01*
X108409766Y-63399500D01*
X108342727Y-63379815D01*
X108340875Y-63378602D01*
X108209185Y-63290609D01*
X108209172Y-63290602D01*
X108063501Y-63230264D01*
X108063489Y-63230261D01*
X107908845Y-63199500D01*
X107908842Y-63199500D01*
X107751158Y-63199500D01*
X107751155Y-63199500D01*
X107596510Y-63230261D01*
X107596498Y-63230264D01*
X107450827Y-63290602D01*
X107450814Y-63290609D01*
X107319711Y-63378210D01*
X107319707Y-63378213D01*
X107208213Y-63489707D01*
X107208210Y-63489711D01*
X107120609Y-63620814D01*
X107120602Y-63620827D01*
X107060264Y-63766498D01*
X107060261Y-63766510D01*
X107029500Y-63921153D01*
X102500500Y-63921153D01*
X102500500Y-56421153D01*
X107529500Y-56421153D01*
X107529500Y-56578846D01*
X107560261Y-56733489D01*
X107560264Y-56733501D01*
X107620602Y-56879172D01*
X107620609Y-56879185D01*
X107708210Y-57010288D01*
X107708213Y-57010292D01*
X107819707Y-57121786D01*
X107819711Y-57121789D01*
X107950814Y-57209390D01*
X107950827Y-57209397D01*
X108096498Y-57269735D01*
X108096503Y-57269737D01*
X108251153Y-57300499D01*
X108251156Y-57300500D01*
X108251158Y-57300500D01*
X108408844Y-57300500D01*
X108408845Y-57300499D01*
X108563497Y-57269737D01*
X108709179Y-57209394D01*
X108709185Y-57209390D01*
X108840875Y-57121398D01*
X108907553Y-57100520D01*
X108909766Y-57100500D01*
X109420234Y-57100500D01*
X109487273Y-57120185D01*
X109489125Y-57121398D01*
X109620814Y-57209390D01*
X109620827Y-57209397D01*
X109766498Y-57269735D01*
X109766503Y-57269737D01*
X109921153Y-57300499D01*
X109921156Y-57300500D01*
X109921158Y-57300500D01*
X110078844Y-57300500D01*
X110078845Y-57300499D01*
X110233497Y-57269737D01*
X110379179Y-57209394D01*
X110510289Y-57121789D01*
X110621789Y-57010289D01*
X110709394Y-56879179D01*
X110713728Y-56868717D01*
X110769735Y-56733501D01*
X110769737Y-56733497D01*
X110800500Y-56578842D01*
X110800500Y-56421158D01*
X110800500Y-56421155D01*
X110800499Y-56421153D01*
X110786094Y-56348735D01*
X110769737Y-56266503D01*
X110763425Y-56251265D01*
X110709397Y-56120827D01*
X110709390Y-56120814D01*
X110621789Y-55989711D01*
X110621786Y-55989707D01*
X110510292Y-55878213D01*
X110510288Y-55878210D01*
X110379185Y-55790609D01*
X110379172Y-55790602D01*
X110233501Y-55730264D01*
X110233489Y-55730261D01*
X110078845Y-55699500D01*
X110078842Y-55699500D01*
X109921158Y-55699500D01*
X109921155Y-55699500D01*
X109766510Y-55730261D01*
X109766498Y-55730264D01*
X109620827Y-55790602D01*
X109620814Y-55790609D01*
X109489125Y-55878602D01*
X109422447Y-55899480D01*
X109420234Y-55899500D01*
X108909766Y-55899500D01*
X108842727Y-55879815D01*
X108840875Y-55878602D01*
X108709185Y-55790609D01*
X108709172Y-55790602D01*
X108563501Y-55730264D01*
X108563489Y-55730261D01*
X108408845Y-55699500D01*
X108408842Y-55699500D01*
X108251158Y-55699500D01*
X108251155Y-55699500D01*
X108096510Y-55730261D01*
X108096498Y-55730264D01*
X107950827Y-55790602D01*
X107950814Y-55790609D01*
X107819711Y-55878210D01*
X107819707Y-55878213D01*
X107708213Y-55989707D01*
X107708210Y-55989711D01*
X107620609Y-56120814D01*
X107620602Y-56120827D01*
X107560264Y-56266498D01*
X107560261Y-56266510D01*
X107529500Y-56421153D01*
X102500500Y-56421153D01*
X102500500Y-44921153D01*
X114699500Y-44921153D01*
X114699500Y-45078846D01*
X114730261Y-45233489D01*
X114730264Y-45233501D01*
X114790602Y-45379172D01*
X114790609Y-45379185D01*
X114878602Y-45510874D01*
X114899480Y-45577551D01*
X114899500Y-45579765D01*
X114899500Y-70420234D01*
X114879815Y-70487273D01*
X114878602Y-70489125D01*
X114790609Y-70620814D01*
X114790602Y-70620827D01*
X114730264Y-70766498D01*
X114730261Y-70766510D01*
X114699500Y-70921153D01*
X114699500Y-71078846D01*
X114730261Y-71233489D01*
X114730264Y-71233501D01*
X114790602Y-71379172D01*
X114790609Y-71379185D01*
X114878210Y-71510288D01*
X114878213Y-71510292D01*
X114989707Y-71621786D01*
X114989711Y-71621789D01*
X115120814Y-71709390D01*
X115120827Y-71709397D01*
X115266498Y-71769735D01*
X115266503Y-71769737D01*
X115421153Y-71800499D01*
X115421156Y-71800500D01*
X115421158Y-71800500D01*
X115578844Y-71800500D01*
X115578845Y-71800499D01*
X115733497Y-71769737D01*
X115879179Y-71709394D01*
X116010289Y-71621789D01*
X116121789Y-71510289D01*
X116209394Y-71379179D01*
X116269737Y-71233497D01*
X116300500Y-71078842D01*
X116300500Y-70921158D01*
X116300500Y-70921155D01*
X116300499Y-70921153D01*
X116269738Y-70766510D01*
X116269737Y-70766503D01*
X116269735Y-70766498D01*
X116209397Y-70620827D01*
X116209390Y-70620814D01*
X116121398Y-70489125D01*
X116100520Y-70422447D01*
X116100500Y-70420234D01*
X116100500Y-47503439D01*
X116120185Y-47436400D01*
X116172989Y-47390645D01*
X116242147Y-47380701D01*
X116305703Y-47409726D01*
X116327602Y-47434548D01*
X116378602Y-47510874D01*
X116399480Y-47577551D01*
X116399500Y-47579765D01*
X116399500Y-58913330D01*
X116399499Y-58913348D01*
X116399499Y-59079054D01*
X116399498Y-59079054D01*
X116440423Y-59231785D01*
X116469358Y-59281900D01*
X116469359Y-59281904D01*
X116469360Y-59281904D01*
X116519479Y-59368714D01*
X116519481Y-59368717D01*
X116638349Y-59487585D01*
X116638355Y-59487590D01*
X128165425Y-71014660D01*
X128198910Y-71075983D01*
X128199361Y-71078149D01*
X128230261Y-71233491D01*
X128230264Y-71233501D01*
X128290602Y-71379172D01*
X128290609Y-71379185D01*
X128378210Y-71510288D01*
X128378213Y-71510292D01*
X128489707Y-71621786D01*
X128489711Y-71621789D01*
X128620814Y-71709390D01*
X128620827Y-71709397D01*
X128766498Y-71769735D01*
X128766503Y-71769737D01*
X128921153Y-71800499D01*
X128921156Y-71800500D01*
X128921158Y-71800500D01*
X129078844Y-71800500D01*
X129078845Y-71800499D01*
X129233497Y-71769737D01*
X129379179Y-71709394D01*
X129510289Y-71621789D01*
X129621789Y-71510289D01*
X129709394Y-71379179D01*
X129769737Y-71233497D01*
X129800500Y-71078842D01*
X129800500Y-70921158D01*
X129800500Y-70921155D01*
X129800499Y-70921153D01*
X129769738Y-70766510D01*
X129769737Y-70766503D01*
X129769735Y-70766498D01*
X129709397Y-70620827D01*
X129709390Y-70620814D01*
X129621789Y-70489711D01*
X129621786Y-70489707D01*
X129510292Y-70378213D01*
X129510288Y-70378210D01*
X129379185Y-70290609D01*
X129379172Y-70290602D01*
X129233501Y-70230264D01*
X129233491Y-70230261D01*
X129078151Y-70199362D01*
X129016241Y-70166977D01*
X129014662Y-70165426D01*
X128270389Y-69421153D01*
X153699500Y-69421153D01*
X153699500Y-69578846D01*
X153730261Y-69733489D01*
X153730264Y-69733501D01*
X153790602Y-69879172D01*
X153790609Y-69879185D01*
X153878210Y-70010288D01*
X153878213Y-70010292D01*
X153989707Y-70121786D01*
X153989711Y-70121789D01*
X154120814Y-70209390D01*
X154120827Y-70209397D01*
X154266498Y-70269735D01*
X154266503Y-70269737D01*
X154421153Y-70300499D01*
X154421156Y-70300500D01*
X154421158Y-70300500D01*
X154578844Y-70300500D01*
X154578845Y-70300499D01*
X154733497Y-70269737D01*
X154879179Y-70209394D01*
X154879185Y-70209390D01*
X155010875Y-70121398D01*
X155077553Y-70100520D01*
X155079766Y-70100500D01*
X155920234Y-70100500D01*
X155987273Y-70120185D01*
X155989125Y-70121398D01*
X156120814Y-70209390D01*
X156120827Y-70209397D01*
X156266498Y-70269735D01*
X156266503Y-70269737D01*
X156421153Y-70300499D01*
X156421156Y-70300500D01*
X156421158Y-70300500D01*
X156578844Y-70300500D01*
X156578845Y-70300499D01*
X156733497Y-70269737D01*
X156879179Y-70209394D01*
X157010289Y-70121789D01*
X157121789Y-70010289D01*
X157209394Y-69879179D01*
X157269737Y-69733497D01*
X157300500Y-69578842D01*
X157300500Y-69421158D01*
X157300500Y-69421155D01*
X157300499Y-69421153D01*
X157281798Y-69327139D01*
X157269737Y-69266503D01*
X157237130Y-69187781D01*
X157209397Y-69120827D01*
X157209390Y-69120814D01*
X157121789Y-68989711D01*
X157121786Y-68989707D01*
X157010292Y-68878213D01*
X157010288Y-68878210D01*
X156879185Y-68790609D01*
X156879172Y-68790602D01*
X156733501Y-68730264D01*
X156733489Y-68730261D01*
X156578845Y-68699500D01*
X156578842Y-68699500D01*
X156421158Y-68699500D01*
X156421155Y-68699500D01*
X156266510Y-68730261D01*
X156266498Y-68730264D01*
X156120827Y-68790602D01*
X156120814Y-68790609D01*
X155989125Y-68878602D01*
X155922447Y-68899480D01*
X155920234Y-68899500D01*
X155079766Y-68899500D01*
X155012727Y-68879815D01*
X155010875Y-68878602D01*
X154879185Y-68790609D01*
X154879172Y-68790602D01*
X154733501Y-68730264D01*
X154733489Y-68730261D01*
X154578845Y-68699500D01*
X154578842Y-68699500D01*
X154421158Y-68699500D01*
X154421155Y-68699500D01*
X154266510Y-68730261D01*
X154266498Y-68730264D01*
X154120827Y-68790602D01*
X154120814Y-68790609D01*
X153989711Y-68878210D01*
X153989707Y-68878213D01*
X153878213Y-68989707D01*
X153878210Y-68989711D01*
X153790609Y-69120814D01*
X153790602Y-69120827D01*
X153730264Y-69266498D01*
X153730261Y-69266510D01*
X153699500Y-69421153D01*
X128270389Y-69421153D01*
X120770389Y-61921153D01*
X136199500Y-61921153D01*
X136199500Y-62078846D01*
X136230261Y-62233489D01*
X136230264Y-62233501D01*
X136290602Y-62379172D01*
X136290609Y-62379185D01*
X136378210Y-62510288D01*
X136378213Y-62510292D01*
X136489707Y-62621786D01*
X136489711Y-62621789D01*
X136620814Y-62709390D01*
X136620827Y-62709397D01*
X136766498Y-62769735D01*
X136766503Y-62769737D01*
X136921153Y-62800499D01*
X136921156Y-62800500D01*
X136921158Y-62800500D01*
X137078844Y-62800500D01*
X137078845Y-62800499D01*
X137233497Y-62769737D01*
X137379179Y-62709394D01*
X137379185Y-62709390D01*
X137510875Y-62621398D01*
X137577553Y-62600520D01*
X137579766Y-62600500D01*
X143261860Y-62600500D01*
X143261876Y-62600501D01*
X143269472Y-62600501D01*
X143427583Y-62600501D01*
X143427586Y-62600501D01*
X143580314Y-62559577D01*
X143630433Y-62530639D01*
X143717245Y-62480520D01*
X143829049Y-62368716D01*
X143829049Y-62368714D01*
X143839257Y-62358507D01*
X143839259Y-62358504D01*
X144458506Y-61739257D01*
X144458511Y-61739253D01*
X144468714Y-61729049D01*
X144468716Y-61729049D01*
X144580520Y-61617245D01*
X144659577Y-61480313D01*
X144700500Y-61327586D01*
X144700500Y-56421153D01*
X154699500Y-56421153D01*
X154699500Y-56578846D01*
X154730261Y-56733489D01*
X154730264Y-56733501D01*
X154790602Y-56879172D01*
X154790609Y-56879185D01*
X154878210Y-57010288D01*
X154878213Y-57010292D01*
X154989707Y-57121786D01*
X154989711Y-57121789D01*
X155120814Y-57209390D01*
X155120827Y-57209397D01*
X155266498Y-57269735D01*
X155266503Y-57269737D01*
X155421153Y-57300499D01*
X155421156Y-57300500D01*
X155421158Y-57300500D01*
X155578844Y-57300500D01*
X155578845Y-57300499D01*
X155733497Y-57269737D01*
X155879179Y-57209394D01*
X155879185Y-57209390D01*
X156010875Y-57121398D01*
X156077553Y-57100520D01*
X156079766Y-57100500D01*
X157420234Y-57100500D01*
X157487273Y-57120185D01*
X157489125Y-57121398D01*
X157620814Y-57209390D01*
X157620827Y-57209397D01*
X157766498Y-57269735D01*
X157766503Y-57269737D01*
X157921153Y-57300499D01*
X157921156Y-57300500D01*
X157921158Y-57300500D01*
X158078844Y-57300500D01*
X158078845Y-57300499D01*
X158233497Y-57269737D01*
X158379179Y-57209394D01*
X158510289Y-57121789D01*
X158621789Y-57010289D01*
X158709394Y-56879179D01*
X158713728Y-56868717D01*
X158769735Y-56733501D01*
X158769737Y-56733497D01*
X158800500Y-56578842D01*
X158800500Y-56421158D01*
X158800500Y-56421155D01*
X158800499Y-56421153D01*
X158786094Y-56348735D01*
X158769737Y-56266503D01*
X158763425Y-56251265D01*
X158709397Y-56120827D01*
X158709390Y-56120814D01*
X158621789Y-55989711D01*
X158621786Y-55989707D01*
X158510292Y-55878213D01*
X158510288Y-55878210D01*
X158379185Y-55790609D01*
X158379172Y-55790602D01*
X158233501Y-55730264D01*
X158233489Y-55730261D01*
X158078845Y-55699500D01*
X158078842Y-55699500D01*
X157921158Y-55699500D01*
X157921155Y-55699500D01*
X157766510Y-55730261D01*
X157766498Y-55730264D01*
X157620827Y-55790602D01*
X157620814Y-55790609D01*
X157489125Y-55878602D01*
X157422447Y-55899480D01*
X157420234Y-55899500D01*
X156079766Y-55899500D01*
X156012727Y-55879815D01*
X156010875Y-55878602D01*
X155879185Y-55790609D01*
X155879172Y-55790602D01*
X155733501Y-55730264D01*
X155733489Y-55730261D01*
X155578845Y-55699500D01*
X155578842Y-55699500D01*
X155421158Y-55699500D01*
X155421155Y-55699500D01*
X155266510Y-55730261D01*
X155266498Y-55730264D01*
X155120827Y-55790602D01*
X155120814Y-55790609D01*
X154989711Y-55878210D01*
X154989707Y-55878213D01*
X154878213Y-55989707D01*
X154878210Y-55989711D01*
X154790609Y-56120814D01*
X154790602Y-56120827D01*
X154730264Y-56266498D01*
X154730261Y-56266510D01*
X154699500Y-56421153D01*
X144700500Y-56421153D01*
X144700500Y-56189059D01*
X144700501Y-56189046D01*
X144700501Y-56020945D01*
X144700501Y-56020943D01*
X144659577Y-55868215D01*
X144630639Y-55818095D01*
X144580520Y-55731284D01*
X144468716Y-55619480D01*
X144468715Y-55619479D01*
X144464385Y-55615149D01*
X144464374Y-55615139D01*
X143834574Y-54985339D01*
X143801089Y-54924016D01*
X143800638Y-54921849D01*
X143769738Y-54766510D01*
X143769737Y-54766503D01*
X143769735Y-54766498D01*
X143709397Y-54620827D01*
X143709390Y-54620814D01*
X143621789Y-54489711D01*
X143621786Y-54489707D01*
X143510292Y-54378213D01*
X143510288Y-54378210D01*
X143379185Y-54290609D01*
X143379172Y-54290602D01*
X143233501Y-54230264D01*
X143233489Y-54230261D01*
X143078845Y-54199500D01*
X143078842Y-54199500D01*
X142921158Y-54199500D01*
X142921155Y-54199500D01*
X142766510Y-54230261D01*
X142766498Y-54230264D01*
X142620827Y-54290602D01*
X142620814Y-54290609D01*
X142489711Y-54378210D01*
X142489707Y-54378213D01*
X142378213Y-54489707D01*
X142378210Y-54489711D01*
X142290609Y-54620814D01*
X142290602Y-54620827D01*
X142230264Y-54766498D01*
X142230261Y-54766510D01*
X142199500Y-54921153D01*
X142199500Y-55078846D01*
X142230261Y-55233489D01*
X142230264Y-55233501D01*
X142290602Y-55379172D01*
X142290609Y-55379185D01*
X142378210Y-55510288D01*
X142378213Y-55510292D01*
X142489707Y-55621786D01*
X142489711Y-55621789D01*
X142620814Y-55709390D01*
X142620827Y-55709397D01*
X142766498Y-55769735D01*
X142766503Y-55769737D01*
X142831147Y-55782595D01*
X142921849Y-55800638D01*
X142983760Y-55833023D01*
X142985339Y-55834574D01*
X143463181Y-56312416D01*
X143496666Y-56373739D01*
X143499500Y-56400097D01*
X143499500Y-59850903D01*
X143479815Y-59917942D01*
X143427011Y-59963697D01*
X143357853Y-59973641D01*
X143294297Y-59944616D01*
X143287819Y-59938584D01*
X139636819Y-56287584D01*
X139603334Y-56226261D01*
X139600500Y-56199903D01*
X139600500Y-44079765D01*
X139620185Y-44012726D01*
X139621398Y-44010874D01*
X139709390Y-43879185D01*
X139709390Y-43879184D01*
X139709394Y-43879179D01*
X139769737Y-43733497D01*
X139800500Y-43578842D01*
X139800500Y-43421158D01*
X139800500Y-43421155D01*
X139800499Y-43421153D01*
X139769738Y-43266510D01*
X139769737Y-43266503D01*
X139769735Y-43266498D01*
X139709397Y-43120827D01*
X139709390Y-43120814D01*
X139621789Y-42989711D01*
X139621786Y-42989707D01*
X139510292Y-42878213D01*
X139510288Y-42878210D01*
X139379185Y-42790609D01*
X139379172Y-42790602D01*
X139233501Y-42730264D01*
X139233489Y-42730261D01*
X139078845Y-42699500D01*
X139078842Y-42699500D01*
X138921158Y-42699500D01*
X138921155Y-42699500D01*
X138766510Y-42730261D01*
X138766498Y-42730264D01*
X138620827Y-42790602D01*
X138620814Y-42790609D01*
X138489711Y-42878210D01*
X138489707Y-42878213D01*
X138378213Y-42989707D01*
X138378210Y-42989711D01*
X138290609Y-43120814D01*
X138290602Y-43120827D01*
X138230264Y-43266498D01*
X138230261Y-43266510D01*
X138199500Y-43421153D01*
X138199500Y-43578846D01*
X138230261Y-43733489D01*
X138230264Y-43733501D01*
X138290602Y-43879172D01*
X138290609Y-43879185D01*
X138378602Y-44010874D01*
X138399480Y-44077551D01*
X138399500Y-44079765D01*
X138399500Y-56413330D01*
X138399499Y-56413348D01*
X138399499Y-56579054D01*
X138399498Y-56579054D01*
X138440423Y-56731785D01*
X138469358Y-56781900D01*
X138469359Y-56781904D01*
X138469360Y-56781904D01*
X138519479Y-56868714D01*
X138519481Y-56868717D01*
X138638349Y-56987585D01*
X138638355Y-56987590D01*
X142665425Y-61014660D01*
X142698910Y-61075983D01*
X142699361Y-61078149D01*
X142730261Y-61233491D01*
X142732031Y-61239324D01*
X142729279Y-61240158D01*
X142735503Y-61297359D01*
X142704309Y-61359878D01*
X142644266Y-61395608D01*
X142613445Y-61399500D01*
X137579766Y-61399500D01*
X137512727Y-61379815D01*
X137510875Y-61378602D01*
X137379185Y-61290609D01*
X137379172Y-61290602D01*
X137233501Y-61230264D01*
X137233489Y-61230261D01*
X137078845Y-61199500D01*
X137078842Y-61199500D01*
X136921158Y-61199500D01*
X136921155Y-61199500D01*
X136766510Y-61230261D01*
X136766498Y-61230264D01*
X136620827Y-61290602D01*
X136620814Y-61290609D01*
X136489711Y-61378210D01*
X136489707Y-61378213D01*
X136378213Y-61489707D01*
X136378210Y-61489711D01*
X136290609Y-61620814D01*
X136290602Y-61620827D01*
X136230264Y-61766498D01*
X136230261Y-61766510D01*
X136199500Y-61921153D01*
X120770389Y-61921153D01*
X117636819Y-58787583D01*
X117603334Y-58726260D01*
X117600500Y-58699902D01*
X117600500Y-47579765D01*
X117620185Y-47512726D01*
X117621398Y-47510874D01*
X117709390Y-47379185D01*
X117709390Y-47379184D01*
X117709394Y-47379179D01*
X117769737Y-47233497D01*
X117800500Y-47078842D01*
X117800500Y-46921158D01*
X117800500Y-46921155D01*
X117800499Y-46921153D01*
X117769738Y-46766510D01*
X117769737Y-46766503D01*
X117769735Y-46766498D01*
X117709397Y-46620827D01*
X117709390Y-46620814D01*
X117621789Y-46489711D01*
X117621786Y-46489707D01*
X117510292Y-46378213D01*
X117510288Y-46378210D01*
X117379185Y-46290609D01*
X117379172Y-46290602D01*
X117233501Y-46230264D01*
X117233489Y-46230261D01*
X117078845Y-46199500D01*
X117078842Y-46199500D01*
X116921158Y-46199500D01*
X116921155Y-46199500D01*
X116766510Y-46230261D01*
X116766498Y-46230264D01*
X116620827Y-46290602D01*
X116620814Y-46290609D01*
X116489711Y-46378210D01*
X116489707Y-46378213D01*
X116378213Y-46489707D01*
X116378210Y-46489711D01*
X116327602Y-46565451D01*
X116273989Y-46610256D01*
X116204664Y-46618963D01*
X116141637Y-46588808D01*
X116104918Y-46529365D01*
X116100500Y-46496560D01*
X116100500Y-45579765D01*
X116120185Y-45512726D01*
X116121398Y-45510874D01*
X116209390Y-45379185D01*
X116209390Y-45379184D01*
X116209394Y-45379179D01*
X116269737Y-45233497D01*
X116300500Y-45078842D01*
X116300500Y-44921158D01*
X116300500Y-44921155D01*
X116300499Y-44921153D01*
X116269738Y-44766510D01*
X116269737Y-44766503D01*
X116269735Y-44766498D01*
X116209397Y-44620827D01*
X116209390Y-44620814D01*
X116121789Y-44489711D01*
X116121786Y-44489707D01*
X116010292Y-44378213D01*
X116010288Y-44378210D01*
X115879185Y-44290609D01*
X115879172Y-44290602D01*
X115733501Y-44230264D01*
X115733489Y-44230261D01*
X115578845Y-44199500D01*
X115578842Y-44199500D01*
X115421158Y-44199500D01*
X115421155Y-44199500D01*
X115266510Y-44230261D01*
X115266498Y-44230264D01*
X115120827Y-44290602D01*
X115120814Y-44290609D01*
X114989711Y-44378210D01*
X114989707Y-44378213D01*
X114878213Y-44489707D01*
X114878210Y-44489711D01*
X114790609Y-44620814D01*
X114790602Y-44620827D01*
X114730264Y-44766498D01*
X114730261Y-44766510D01*
X114699500Y-44921153D01*
X102500500Y-44921153D01*
X102500500Y-39124500D01*
X102520185Y-39057461D01*
X102572989Y-39011706D01*
X102624500Y-39000500D01*
X161875500Y-39000500D01*
X161942539Y-39020185D01*
G37*
%TD.AperFunction*%
%TD*%
M02*
