%TF.GenerationSoftware,KiCad,Pcbnew,10.0.5*%
%TF.CreationDate,2026-08-16T16:45:00+01:00*%
%TF.ProjectId,StudyWithKey,53747564-7957-4697-9468-4b65792e6b69,rev?*%
%TF.SameCoordinates,Original*%
%TF.FileFunction,Copper,L1,Top*%
%TF.FilePolarity,Positive*%
%FSLAX46Y46*%
G04 Gerber Fmt 4.6, Leading zero omitted, Abs format (unit mm)*
G04 Created by KiCad (PCBNEW 10.0.5) date 2026-08-16 16:45:00*
%MOMM*%
%LPD*%
G01*
G04 APERTURE LIST*
G04 Aperture macros list*
%AMRoundRect*
0 Rectangle with rounded corners*
0 $1 Rounding radius*
0 $2 $3 $4 $5 $6 $7 $8 $9 X,Y pos of 4 corners*
0 Add a 4 corners polygon primitive as box body*
4,1,4,$2,$3,$4,$5,$6,$7,$8,$9,$2,$3,0*
0 Add four circle primitives for the rounded corners*
1,1,$1+$1,$2,$3*
1,1,$1+$1,$4,$5*
1,1,$1+$1,$6,$7*
1,1,$1+$1,$8,$9*
0 Add four rect primitives between the rounded corners*
20,1,$1+$1,$2,$3,$4,$5,0*
20,1,$1+$1,$4,$5,$6,$7,0*
20,1,$1+$1,$6,$7,$8,$9,0*
20,1,$1+$1,$8,$9,$2,$3,0*%
G04 Aperture macros list end*
%TA.AperFunction,SMDPad,CuDef*%
%ADD10RoundRect,0.250000X-0.262500X-0.450000X0.262500X-0.450000X0.262500X0.450000X-0.262500X0.450000X0*%
%TD*%
%TA.AperFunction,SMDPad,CuDef*%
%ADD11RoundRect,0.250000X-0.850000X-0.350000X0.850000X-0.350000X0.850000X0.350000X-0.850000X0.350000X0*%
%TD*%
%TA.AperFunction,SMDPad,CuDef*%
%ADD12RoundRect,0.249997X-2.950003X-2.650003X2.950003X-2.650003X2.950003X2.650003X-2.950003X2.650003X0*%
%TD*%
%TA.AperFunction,SMDPad,CuDef*%
%ADD13RoundRect,0.250000X-0.250000X-0.475000X0.250000X-0.475000X0.250000X0.475000X-0.250000X0.475000X0*%
%TD*%
%TA.AperFunction,SMDPad,CuDef*%
%ADD14RoundRect,0.250000X-0.525000X-0.400000X0.525000X-0.400000X0.525000X0.400000X-0.525000X0.400000X0*%
%TD*%
%TA.AperFunction,SMDPad,CuDef*%
%ADD15RoundRect,0.250000X0.475000X-0.250000X0.475000X0.250000X-0.475000X0.250000X-0.475000X-0.250000X0*%
%TD*%
%TA.AperFunction,SMDPad,CuDef*%
%ADD16R,1.500000X0.900000*%
%TD*%
%TA.AperFunction,SMDPad,CuDef*%
%ADD17R,0.900000X1.500000*%
%TD*%
%TA.AperFunction,HeatsinkPad*%
%ADD18C,0.600000*%
%TD*%
%TA.AperFunction,HeatsinkPad*%
%ADD19R,3.900000X3.900000*%
%TD*%
%TA.AperFunction,SMDPad,CuDef*%
%ADD20RoundRect,0.150000X-0.150000X-0.575000X0.150000X-0.575000X0.150000X0.575000X-0.150000X0.575000X0*%
%TD*%
%TA.AperFunction,SMDPad,CuDef*%
%ADD21RoundRect,0.075000X-0.075000X-0.650000X0.075000X-0.650000X0.075000X0.650000X-0.075000X0.650000X0*%
%TD*%
%TA.AperFunction,ComponentPad*%
%ADD22O,1.000000X2.100000*%
%TD*%
%TA.AperFunction,ComponentPad*%
%ADD23O,1.000000X1.600000*%
%TD*%
%TA.AperFunction,ViaPad*%
%ADD24C,0.600000*%
%TD*%
%TA.AperFunction,Conductor*%
%ADD25C,0.200000*%
%TD*%
G04 APERTURE END LIST*
D10*
%TO.P,R2,1*%
%TO.N,GND*%
X137087500Y-78000000D03*
%TO.P,R2,2*%
%TO.N,Net-(J1-CC2)*%
X138912500Y-78000000D03*
%TD*%
D11*
%TO.P,U2,1,GND_1*%
%TO.N,Net-(U2-GND)*%
X125200000Y-89220000D03*
%TO.P,U2,2,VO_2*%
%TO.N,Net-(U1-3V3)*%
X125200000Y-91500000D03*
D12*
X131500000Y-91500000D03*
D11*
%TO.P,U2,3,VI_3*%
%TO.N,Net-(U2-VI)*%
X125200000Y-93780000D03*
%TD*%
D13*
%TO.P,C3,1*%
%TO.N,Net-(U1-EN)*%
X129600000Y-83000000D03*
%TO.P,C3,2*%
%TO.N,GND*%
X131500000Y-83000000D03*
%TD*%
D14*
%TO.P,SW1,1,1_1*%
%TO.N,GND*%
X143520000Y-41750000D03*
X151480000Y-41750000D03*
%TO.P,SW1,2,2_2*%
%TO.N,Net-(U1-IO0)*%
X143520000Y-46250000D03*
X151480000Y-46250000D03*
%TD*%
%TO.P,SW5,1,1_1*%
%TO.N,GND*%
X153020000Y-89250000D03*
X160980000Y-89250000D03*
%TO.P,SW5,2,2_2*%
%TO.N,Net-(U1-IO38)*%
X153020000Y-93750000D03*
X160980000Y-93750000D03*
%TD*%
D13*
%TO.P,C6,1*%
%TO.N,Net-(U2-VI)*%
X119550000Y-75000000D03*
%TO.P,C6,2*%
%TO.N,Net-(U2-GND)*%
X121450000Y-75000000D03*
%TD*%
D10*
%TO.P,R1,1*%
%TO.N,GND*%
X137087500Y-69000000D03*
%TO.P,R1,2*%
%TO.N,Net-(J1-CC1)*%
X138912500Y-69000000D03*
%TD*%
D15*
%TO.P,C7,1*%
%TO.N,Net-(U1-3V3)*%
X120950000Y-83950000D03*
%TO.P,C7,2*%
%TO.N,Net-(U2-GND)*%
X120950000Y-82050000D03*
%TD*%
D16*
%TO.P,U1,1,GND_1*%
%TO.N,GND*%
X119000000Y-39880000D03*
%TO.P,U1,2,3V3_2*%
%TO.N,Net-(U1-3V3)*%
X119000000Y-41150000D03*
%TO.P,U1,3,EN_3*%
%TO.N,Net-(U1-EN)*%
X119000000Y-42420000D03*
%TO.P,U1,4,IO4_4*%
%TO.N,unconnected-(U1-IO4-Pad4)*%
X119000000Y-43690000D03*
%TO.P,U1,5,IO5_5*%
%TO.N,unconnected-(U1-IO5-Pad5)*%
X119000000Y-44960000D03*
%TO.P,U1,6,IO6_6*%
%TO.N,unconnected-(U1-IO6-Pad6)*%
X119000000Y-46230000D03*
%TO.P,U1,7,IO7_7*%
%TO.N,unconnected-(U1-IO7-Pad7)*%
X119000000Y-47500000D03*
%TO.P,U1,8,IO15_8*%
%TO.N,unconnected-(U1-IO15-Pad8)*%
X119000000Y-48770000D03*
%TO.P,U1,9,IO16_9*%
%TO.N,unconnected-(U1-IO16-Pad9)*%
X119000000Y-50040000D03*
%TO.P,U1,10,IO17_10*%
%TO.N,unconnected-(U1-IO17-Pad10)*%
X119000000Y-51310000D03*
%TO.P,U1,11,IO18_11*%
%TO.N,unconnected-(U1-IO18-Pad11)*%
X119000000Y-52580000D03*
%TO.P,U1,12,IO8_12*%
%TO.N,unconnected-(U1-IO8-Pad12)*%
X119000000Y-53850000D03*
%TO.P,U1,13,USB_D-_13*%
%TO.N,Net-(U1-USB_D-)*%
X119000000Y-55120000D03*
%TO.P,U1,14,USB_D+_14*%
%TO.N,Net-(U1-USB_D+)*%
X119000000Y-56390000D03*
D17*
%TO.P,U1,15,IO3_15*%
%TO.N,unconnected-(U1-IO3-Pad15)*%
X120765000Y-57640000D03*
%TO.P,U1,16,IO46_16*%
%TO.N,unconnected-(U1-IO46-Pad16)*%
X122035000Y-57640000D03*
%TO.P,U1,17,IO9_17*%
%TO.N,unconnected-(U1-IO9-Pad17)*%
X123305000Y-57640000D03*
%TO.P,U1,18,IO10_18*%
%TO.N,unconnected-(U1-IO10-Pad18)*%
X124575000Y-57640000D03*
%TO.P,U1,19,IO11_19*%
%TO.N,unconnected-(U1-IO11-Pad19)*%
X125845000Y-57640000D03*
%TO.P,U1,20,IO12_20*%
%TO.N,unconnected-(U1-IO12-Pad20)*%
X127115000Y-57640000D03*
%TO.P,U1,21,IO13_21*%
%TO.N,unconnected-(U1-IO13-Pad21)*%
X128385000Y-57640000D03*
%TO.P,U1,22,IO14_22*%
%TO.N,unconnected-(U1-IO14-Pad22)*%
X129655000Y-57640000D03*
%TO.P,U1,23,IO21_23*%
%TO.N,unconnected-(U1-IO21-Pad23)*%
X130925000Y-57640000D03*
%TO.P,U1,24,IO47_24*%
%TO.N,unconnected-(U1-IO47-Pad24)*%
X132195000Y-57640000D03*
%TO.P,U1,25,IO48_25*%
%TO.N,unconnected-(U1-IO48-Pad25)*%
X133465000Y-57640000D03*
%TO.P,U1,26,IO45_26*%
%TO.N,unconnected-(U1-IO45-Pad26)*%
X134735000Y-57640000D03*
D16*
%TO.P,U1,27,IO0_27*%
%TO.N,Net-(U1-IO0)*%
X136500000Y-56390000D03*
%TO.P,U1,28,IO35_28*%
%TO.N,unconnected-(U1-IO35-Pad28)*%
X136500000Y-55120000D03*
%TO.P,U1,29,IO36_29*%
%TO.N,unconnected-(U1-IO36-Pad29)*%
X136500000Y-53850000D03*
%TO.P,U1,30,IO37_30*%
%TO.N,unconnected-(U1-IO37-Pad30)*%
X136500000Y-52580000D03*
%TO.P,U1,31,IO38_31*%
%TO.N,Net-(U1-IO38)*%
X136500000Y-51310000D03*
%TO.P,U1,32,IO39_32*%
%TO.N,unconnected-(U1-IO39-Pad32)*%
X136500000Y-50040000D03*
%TO.P,U1,33,IO40_33*%
%TO.N,Net-(U1-IO40)*%
X136500000Y-48770000D03*
%TO.P,U1,34,IO41_34*%
%TO.N,unconnected-(U1-IO41-Pad34)*%
X136500000Y-47500000D03*
%TO.P,U1,35,IO42_35*%
%TO.N,Net-(U1-IO42)*%
X136500000Y-46230000D03*
%TO.P,U1,36,RXD0_36*%
%TO.N,unconnected-(U1-RXD0-Pad36)*%
X136500000Y-44960000D03*
%TO.P,U1,37,TXD0_37*%
%TO.N,unconnected-(U1-TXD0-Pad37)*%
X136500000Y-43690000D03*
%TO.P,U1,38,IO2_38*%
%TO.N,unconnected-(U1-IO2-Pad38)*%
X136500000Y-42420000D03*
%TO.P,U1,39,IO1_39*%
%TO.N,Net-(U1-IO1)*%
X136500000Y-41150000D03*
%TO.P,U1,40,GND_40*%
%TO.N,GND*%
X136500000Y-39880000D03*
D18*
%TO.P,U1,41,GND_41*%
X124850000Y-46900000D03*
X124850000Y-48300000D03*
X125550000Y-46200000D03*
X125550000Y-47600000D03*
X125550000Y-49000000D03*
X126250000Y-46900000D03*
D19*
X126250000Y-47600000D03*
D18*
X126250000Y-48300000D03*
X126950000Y-46200000D03*
X126950000Y-47600000D03*
X126950000Y-49000000D03*
X127650000Y-46900000D03*
X127650000Y-48300000D03*
%TD*%
D14*
%TO.P,SW2,1,1_1*%
%TO.N,GND*%
X153020000Y-51750000D03*
X160980000Y-51750000D03*
%TO.P,SW2,2,2_2*%
%TO.N,Net-(U1-IO42)*%
X153020000Y-56250000D03*
X160980000Y-56250000D03*
%TD*%
%TO.P,SW3,1,1_1*%
%TO.N,GND*%
X153040000Y-65000000D03*
X161000000Y-65000000D03*
%TO.P,SW3,2,2_2*%
%TO.N,Net-(U1-IO1)*%
X153040000Y-69500000D03*
X161000000Y-69500000D03*
%TD*%
D20*
%TO.P,J1,A1,GND_A1*%
%TO.N,GND*%
X105430000Y-67085000D03*
%TO.P,J1,A4,VBUS_A4*%
%TO.N,Net-(U2-VI)*%
X106230000Y-67085000D03*
D21*
%TO.P,J1,A5,CC1_A5*%
%TO.N,Net-(J1-CC1)*%
X107430000Y-67085000D03*
%TO.P,J1,A6,D+_A6*%
%TO.N,Net-(U1-USB_D+)*%
X108430000Y-67085000D03*
%TO.P,J1,A7,D-_A7*%
%TO.N,Net-(U1-USB_D-)*%
X108930000Y-67085000D03*
%TO.P,J1,A8,SBU1_A8*%
%TO.N,unconnected-(J1-SBU1-PadA8)*%
X109930000Y-67085000D03*
D20*
%TO.P,J1,A9,VBUS_A9*%
%TO.N,Net-(U2-VI)*%
X111130000Y-67085000D03*
%TO.P,J1,A12,GND_A12*%
%TO.N,GND*%
X111930000Y-67085000D03*
%TO.P,J1,B1,GND_B1*%
X111930000Y-67085000D03*
%TO.P,J1,B4,VBUS_B4*%
%TO.N,Net-(U2-VI)*%
X111130000Y-67085000D03*
D21*
%TO.P,J1,B5,CC2_B5*%
%TO.N,Net-(J1-CC2)*%
X110430000Y-67085000D03*
%TO.P,J1,B6,D+_B6*%
%TO.N,unconnected-(J1-D+-PadB6)*%
X109430000Y-67085000D03*
%TO.P,J1,B7,D-_B7*%
%TO.N,unconnected-(J1-D--PadB7)*%
X107930000Y-67085000D03*
%TO.P,J1,B8,SBU2_B8*%
%TO.N,unconnected-(J1-SBU2-PadB8)*%
X106930000Y-67085000D03*
D20*
%TO.P,J1,B9,VBUS_B9*%
%TO.N,Net-(U2-VI)*%
X106230000Y-67085000D03*
%TO.P,J1,B12,GND_B12*%
%TO.N,GND*%
X105430000Y-67085000D03*
D22*
%TO.P,J1,SH,SHIELD_SH*%
%TO.N,unconnected-(J1-SHIELD-PadSH)*%
X104360000Y-68000000D03*
D23*
%TO.N,unconnected-(J1-SHIELD-PadSH)_2*%
X104360000Y-72180000D03*
D22*
%TO.N,unconnected-(J1-SHIELD-PadSH)_3*%
X113000000Y-68000000D03*
D23*
%TO.N,unconnected-(J1-SHIELD-PadSH)_1*%
X113000000Y-72180000D03*
%TD*%
D14*
%TO.P,SW4,1,1_1*%
%TO.N,GND*%
X153040000Y-77000000D03*
X161000000Y-77000000D03*
%TO.P,SW4,2,2_2*%
%TO.N,Net-(U1-IO40)*%
X153040000Y-81500000D03*
X161000000Y-81500000D03*
%TD*%
D10*
%TO.P,R3,1*%
%TO.N,Net-(U1-3V3)*%
X129587500Y-78000000D03*
%TO.P,R3,2*%
%TO.N,Net-(U1-EN)*%
X131412500Y-78000000D03*
%TD*%
D24*
%TO.N,GND*%
X134500000Y-68500000D03*
X128500000Y-68500000D03*
%TO.N,Net-(U1-IO42)*%
X155500000Y-56500000D03*
X158000000Y-56500000D03*
%TO.N,Net-(U1-IO1)*%
X154500000Y-69500000D03*
X156500000Y-69500000D03*
%TO.N,Net-(U1-IO40)*%
X154900000Y-81500000D03*
X158000000Y-81500000D03*
%TO.N,GND*%
X140500000Y-80500000D03*
X150500000Y-77000000D03*
%TO.N,Net-(U1-3V3)*%
X115500000Y-71000000D03*
X115500000Y-45000000D03*
%TO.N,Net-(U2-VI)*%
X119000000Y-81000000D03*
X119000000Y-88500000D03*
X116500000Y-77500000D03*
X113000000Y-77500000D03*
%TO.N,Net-(U1-EN)*%
X129000000Y-71000000D03*
X117000000Y-47000000D03*
%TO.N,Net-(U1-IO0)*%
X143000000Y-55000000D03*
X137000000Y-62000000D03*
%TO.N,Net-(J1-CC1)*%
X110000000Y-64000000D03*
X107830000Y-64000000D03*
%TO.N,Net-(U1-USB_D+)*%
X108330000Y-56500000D03*
X110000000Y-56500000D03*
%TO.N,Net-(U1-IO1)*%
X143500000Y-61000000D03*
X139000000Y-43500000D03*
%TO.N,GND*%
X126250000Y-47600000D03*
%TD*%
%TO.N,GND*%
D25*
X134500000Y-68500000D02*
X135500000Y-68500000D01*
X113615000Y-65400000D02*
X125400000Y-65400000D01*
X111930000Y-67085000D02*
X113615000Y-65400000D01*
X125400000Y-65400000D02*
X128500000Y-68500000D01*
X135500000Y-68500000D02*
X136000000Y-69000000D01*
X136000000Y-69000000D02*
X137087500Y-69000000D01*
X105430000Y-67085000D02*
X104995000Y-66650000D01*
X112365000Y-66650000D02*
X111930000Y-67085000D01*
X104995000Y-66650000D02*
X104028629Y-66650000D01*
X104028629Y-66650000D02*
X103560000Y-67118629D01*
X103560000Y-67118629D02*
X103560000Y-68881371D01*
X103560000Y-68881371D02*
X104028629Y-69350000D01*
X104028629Y-69350000D02*
X113331371Y-69350000D01*
X113331371Y-69350000D02*
X113800000Y-68881371D01*
X113800000Y-68881371D02*
X113800000Y-67118629D01*
X113800000Y-67118629D02*
X113331371Y-66650000D01*
X113331371Y-66650000D02*
X112365000Y-66650000D01*
%TO.N,Net-(U1-IO0)*%
X151480000Y-46250000D02*
X143520000Y-46250000D01*
%TO.N,Net-(U1-IO42)*%
X160980000Y-56250000D02*
X158250000Y-56250000D01*
X155500000Y-56500000D02*
X154500000Y-56500000D01*
X158250000Y-56250000D02*
X158000000Y-56500000D01*
X154250000Y-56250000D02*
X153020000Y-56250000D01*
X154500000Y-56500000D02*
X154250000Y-56250000D01*
%TO.N,GND*%
X154095000Y-60905000D02*
X156500000Y-58500000D01*
X154095000Y-63945000D02*
X154095000Y-60905000D01*
X156500000Y-58500000D02*
X156500000Y-55230000D01*
X156500000Y-55230000D02*
X153020000Y-51750000D01*
%TO.N,Net-(U1-IO1)*%
X161000000Y-69500000D02*
X156500000Y-69500000D01*
X154500000Y-69500000D02*
X153040000Y-69500000D01*
%TO.N,Net-(U1-IO40)*%
X161000000Y-81500000D02*
X158000000Y-81500000D01*
X154900000Y-81500000D02*
X153040000Y-81500000D01*
%TO.N,Net-(U1-IO38)*%
X160980000Y-93750000D02*
X153020000Y-93750000D01*
%TO.N,GND*%
X153040000Y-77000000D02*
X150500000Y-77000000D01*
X139409744Y-79000000D02*
X139000000Y-79000000D01*
X140500000Y-80500000D02*
X139000000Y-79000000D01*
%TO.N,Net-(J1-CC2)*%
X139325000Y-78325000D02*
X139325000Y-78500000D01*
X139000000Y-78000000D02*
X139325000Y-78325000D01*
X138912500Y-78000000D02*
X139000000Y-78000000D01*
X126500000Y-65000000D02*
X136750000Y-75250000D01*
%TO.N,Net-(U2-VI)*%
X106230000Y-67085000D02*
X106230000Y-67809999D01*
X106230000Y-67809999D02*
X106530001Y-68110000D01*
X106530001Y-68110000D02*
X110662410Y-68110000D01*
X110662410Y-68110000D02*
X111130000Y-67642410D01*
X111130000Y-67642410D02*
X111130000Y-67085000D01*
%TO.N,Net-(U1-3V3)*%
X125200000Y-91500000D02*
X131500000Y-91500000D01*
%TO.N,Net-(J1-CC2)*%
X138912500Y-78000000D02*
X138912500Y-78412500D01*
%TO.N,GND*%
X153020000Y-89250000D02*
X155500000Y-86770000D01*
X155500000Y-86770000D02*
X155500000Y-79460000D01*
X155500000Y-79460000D02*
X153040000Y-77000000D01*
X153040000Y-77000000D02*
X155500000Y-74540000D01*
X155500000Y-67460000D02*
X153040000Y-65000000D01*
X155500000Y-74540000D02*
X155500000Y-67460000D01*
X153040000Y-65000000D02*
X154095000Y-63945000D01*
X153020000Y-51750000D02*
X153020000Y-43290000D01*
X153020000Y-43290000D02*
X151480000Y-41750000D01*
X143520000Y-41750000D02*
X141650000Y-39880000D01*
X141650000Y-39880000D02*
X136500000Y-39880000D01*
X137087500Y-78000000D02*
X136500000Y-78000000D01*
X136500000Y-78000000D02*
X131500000Y-83000000D01*
X137087500Y-69000000D02*
X139725000Y-71637500D01*
X139725000Y-71637500D02*
X139725000Y-78684744D01*
X138087500Y-79000000D02*
X137087500Y-78000000D01*
X139725000Y-78684744D02*
X139409744Y-79000000D01*
X139000000Y-79000000D02*
X138087500Y-79000000D01*
X160980000Y-89250000D02*
X153020000Y-89250000D01*
X161000000Y-77000000D02*
X153040000Y-77000000D01*
X161000000Y-65000000D02*
X153040000Y-65000000D01*
X160980000Y-51750000D02*
X153020000Y-51750000D01*
X151480000Y-41750000D02*
X143520000Y-41750000D01*
%TO.N,Net-(J1-CC2)*%
X136750000Y-75250000D02*
X138912500Y-77412500D01*
X110430000Y-67085000D02*
X110430000Y-65070000D01*
X110500000Y-65000000D02*
X126500000Y-65000000D01*
X110430000Y-65070000D02*
X110500000Y-65000000D01*
%TO.N,Net-(U1-3V3)*%
X115500000Y-84000000D02*
X115500000Y-71000000D01*
X121000000Y-91500000D02*
X120950000Y-91450000D01*
X115500000Y-45000000D02*
X115500000Y-44000000D01*
X123637500Y-83950000D02*
X129587500Y-78000000D01*
X120950000Y-83950000D02*
X123637500Y-83950000D01*
X115550000Y-83950000D02*
X115500000Y-84000000D01*
X115500000Y-44000000D02*
X118350000Y-41150000D01*
X118350000Y-41150000D02*
X119000000Y-41150000D01*
X125200000Y-91500000D02*
X121000000Y-91500000D01*
X120950000Y-83950000D02*
X115550000Y-83950000D01*
X120950000Y-91450000D02*
X120950000Y-83950000D01*
%TO.N,Net-(U2-VI)*%
X119550000Y-78950000D02*
X119000000Y-79500000D01*
X119000000Y-88500000D02*
X119000000Y-94000000D01*
X106230000Y-64730000D02*
X106000000Y-64500000D01*
X116500000Y-77500000D02*
X117050000Y-77500000D01*
X117050000Y-77500000D02*
X119550000Y-75000000D01*
X119000000Y-94000000D02*
X120000000Y-94000000D01*
X106230000Y-67085000D02*
X106230000Y-64730000D01*
X119000000Y-79500000D02*
X119000000Y-81000000D01*
X103000000Y-77500000D02*
X113000000Y-77500000D01*
X120000000Y-94000000D02*
X120220000Y-93780000D01*
X119550000Y-75000000D02*
X119550000Y-78950000D01*
X120220000Y-93780000D02*
X125200000Y-93780000D01*
X103000000Y-64500000D02*
X103000000Y-77500000D01*
X106000000Y-64500000D02*
X103000000Y-64500000D01*
%TO.N,Net-(U1-EN)*%
X131412500Y-81187500D02*
X129600000Y-83000000D01*
X131412500Y-78000000D02*
X131412500Y-81187500D01*
X131412500Y-73412500D02*
X131412500Y-78000000D01*
X117000000Y-43890000D02*
X117000000Y-47000000D01*
X118470000Y-42420000D02*
X117000000Y-43890000D01*
X119000000Y-42420000D02*
X118470000Y-42420000D01*
X129000000Y-71000000D02*
X131412500Y-73412500D01*
%TO.N,Net-(U1-IO0)*%
X136500000Y-61500000D02*
X136500000Y-56390000D01*
X137000000Y-62000000D02*
X136500000Y-61500000D01*
X143000000Y-46770000D02*
X143000000Y-55000000D01*
X143520000Y-46250000D02*
X143000000Y-46770000D01*
%TO.N,Net-(U1-IO38)*%
X142500000Y-63000000D02*
X137550000Y-58050000D01*
X137550000Y-51410000D02*
X137450000Y-51310000D01*
X137450000Y-51310000D02*
X136500000Y-51310000D01*
X153020000Y-93750000D02*
X142500000Y-83230000D01*
X142500000Y-83230000D02*
X142500000Y-73500000D01*
X137550000Y-58050000D02*
X137550000Y-51410000D01*
X142500000Y-73500000D02*
X142500000Y-63000000D01*
%TO.N,Net-(J1-CC1)*%
X133912500Y-64000000D02*
X138912500Y-69000000D01*
X110000000Y-64000000D02*
X133912500Y-64000000D01*
X107430000Y-64070000D02*
X107500000Y-64000000D01*
X107430000Y-67085000D02*
X107430000Y-64070000D01*
X107500000Y-64000000D02*
X107830000Y-64000000D01*
%TO.N,Net-(U1-USB_D-)*%
X108930000Y-67085000D02*
X108930000Y-55570000D01*
X109380000Y-55120000D02*
X119000000Y-55120000D01*
X108930000Y-55570000D02*
X109380000Y-55120000D01*
%TO.N,Net-(U1-USB_D+)*%
X108430000Y-67085000D02*
X108430000Y-56570000D01*
X110110000Y-56390000D02*
X119000000Y-56390000D01*
X110000000Y-56500000D02*
X110110000Y-56390000D01*
X108500000Y-56500000D02*
X108330000Y-56500000D01*
X108430000Y-56570000D02*
X108500000Y-56500000D01*
%TO.N,Net-(U1-IO40)*%
X153040000Y-81500000D02*
X144400000Y-72860000D01*
X137030000Y-48770000D02*
X136500000Y-48770000D01*
X140500000Y-52240000D02*
X137030000Y-48770000D01*
X144400000Y-62900000D02*
X140500000Y-59000000D01*
X144400000Y-72860000D02*
X144400000Y-62900000D01*
X140500000Y-59000000D02*
X140500000Y-52240000D01*
%TO.N,Net-(U1-IO42)*%
X141500000Y-50280000D02*
X137450000Y-46230000D01*
X142020000Y-56250000D02*
X141500000Y-55730000D01*
X153020000Y-56250000D02*
X142020000Y-56250000D01*
X137450000Y-46230000D02*
X136500000Y-46230000D01*
X141500000Y-55730000D02*
X141500000Y-50280000D01*
%TO.N,Net-(U1-IO1)*%
X139000000Y-43500000D02*
X139000000Y-42700000D01*
X144500000Y-61000000D02*
X143500000Y-61000000D01*
X153040000Y-69500000D02*
X153000000Y-69500000D01*
X153000000Y-69500000D02*
X144500000Y-61000000D01*
X139000000Y-42700000D02*
X137450000Y-41150000D01*
X137450000Y-41150000D02*
X136500000Y-41150000D01*
%TO.N,GND*%
X126250000Y-46600000D02*
X126250000Y-47600000D01*
X126950000Y-49000000D02*
X126950000Y-48300000D01*
X125550000Y-49000000D02*
X125550000Y-48300000D01*
X125550000Y-48300000D02*
X126250000Y-47600000D01*
X126950000Y-48300000D02*
X126250000Y-47600000D01*
X136500000Y-39880000D02*
X136500000Y-40000000D01*
X136000000Y-40000000D02*
X128400000Y-47600000D01*
X127650000Y-46900000D02*
X126950000Y-46900000D01*
X136500000Y-40000000D02*
X136000000Y-40000000D01*
X127650000Y-48300000D02*
X126950000Y-48300000D01*
X126950000Y-46900000D02*
X126250000Y-47600000D01*
X119000000Y-39880000D02*
X119530000Y-39880000D01*
X128400000Y-47600000D02*
X126250000Y-47600000D01*
X119530000Y-39880000D02*
X126250000Y-46600000D01*
%TO.N,Net-(J1-CC2)*%
X138912500Y-77412500D02*
X138912500Y-78000000D01*
%TD*%
%TA.AperFunction,Conductor*%
%TO.N,Net-(U2-GND)*%
G36*
X117752898Y-57010185D02*
G01*
X117798653Y-57062989D01*
X117802030Y-57071140D01*
X117806204Y-57082331D01*
X117806205Y-57082332D01*
X117806206Y-57082335D01*
X117892452Y-57197544D01*
X117892455Y-57197547D01*
X118007664Y-57283793D01*
X118007671Y-57283797D01*
X118142517Y-57334091D01*
X118142516Y-57334091D01*
X118149223Y-57334812D01*
X118202127Y-57340500D01*
X119690500Y-57340499D01*
X119757539Y-57360184D01*
X119803294Y-57412987D01*
X119814500Y-57464499D01*
X119814500Y-58437870D01*
X119814501Y-58437876D01*
X119820908Y-58497483D01*
X119871202Y-58632328D01*
X119871206Y-58632335D01*
X119957452Y-58747544D01*
X119957455Y-58747547D01*
X120072664Y-58833793D01*
X120072671Y-58833797D01*
X120207517Y-58884091D01*
X120207516Y-58884091D01*
X120214444Y-58884835D01*
X120267127Y-58890500D01*
X121262872Y-58890499D01*
X121322483Y-58884091D01*
X121356667Y-58871340D01*
X121426358Y-58866357D01*
X121443327Y-58871338D01*
X121477517Y-58884091D01*
X121537127Y-58890500D01*
X122532872Y-58890499D01*
X122592483Y-58884091D01*
X122626667Y-58871340D01*
X122696358Y-58866357D01*
X122713327Y-58871338D01*
X122747517Y-58884091D01*
X122807127Y-58890500D01*
X123802872Y-58890499D01*
X123862483Y-58884091D01*
X123896667Y-58871340D01*
X123966358Y-58866357D01*
X123983327Y-58871338D01*
X124017517Y-58884091D01*
X124077127Y-58890500D01*
X125072872Y-58890499D01*
X125132483Y-58884091D01*
X125166667Y-58871340D01*
X125236358Y-58866357D01*
X125253327Y-58871338D01*
X125287517Y-58884091D01*
X125347127Y-58890500D01*
X126342872Y-58890499D01*
X126402483Y-58884091D01*
X126436667Y-58871340D01*
X126506358Y-58866357D01*
X126523327Y-58871338D01*
X126557517Y-58884091D01*
X126617127Y-58890500D01*
X127612872Y-58890499D01*
X127672483Y-58884091D01*
X127706667Y-58871340D01*
X127776358Y-58866357D01*
X127793327Y-58871338D01*
X127827517Y-58884091D01*
X127887127Y-58890500D01*
X128882872Y-58890499D01*
X128942483Y-58884091D01*
X128976667Y-58871340D01*
X129046358Y-58866357D01*
X129063327Y-58871338D01*
X129097517Y-58884091D01*
X129157127Y-58890500D01*
X130152872Y-58890499D01*
X130212483Y-58884091D01*
X130246667Y-58871340D01*
X130316358Y-58866357D01*
X130333327Y-58871338D01*
X130367517Y-58884091D01*
X130427127Y-58890500D01*
X131422872Y-58890499D01*
X131482483Y-58884091D01*
X131516667Y-58871340D01*
X131586358Y-58866357D01*
X131603327Y-58871338D01*
X131637517Y-58884091D01*
X131697127Y-58890500D01*
X132692872Y-58890499D01*
X132752483Y-58884091D01*
X132786667Y-58871340D01*
X132856358Y-58866357D01*
X132873327Y-58871338D01*
X132907517Y-58884091D01*
X132967127Y-58890500D01*
X133962872Y-58890499D01*
X134022483Y-58884091D01*
X134056667Y-58871340D01*
X134126358Y-58866357D01*
X134143327Y-58871338D01*
X134177517Y-58884091D01*
X134237127Y-58890500D01*
X135232872Y-58890499D01*
X135292483Y-58884091D01*
X135427331Y-58833796D01*
X135542546Y-58747546D01*
X135628796Y-58632331D01*
X135659318Y-58550498D01*
X135701189Y-58494564D01*
X135766653Y-58470147D01*
X135834926Y-58484998D01*
X135884332Y-58534403D01*
X135899500Y-58593831D01*
X135899500Y-61413330D01*
X135899499Y-61413348D01*
X135899499Y-61579054D01*
X135899498Y-61579054D01*
X135899499Y-61579057D01*
X135940423Y-61731785D01*
X135960468Y-61766503D01*
X135999809Y-61834645D01*
X136019479Y-61868715D01*
X136131284Y-61980520D01*
X136165425Y-62014660D01*
X136198911Y-62075983D01*
X136199362Y-62078151D01*
X136230261Y-62233491D01*
X136230264Y-62233501D01*
X136290602Y-62379172D01*
X136290609Y-62379185D01*
X136378210Y-62510288D01*
X136378213Y-62510292D01*
X136489707Y-62621786D01*
X136489711Y-62621789D01*
X136620814Y-62709390D01*
X136620827Y-62709397D01*
X136766498Y-62769735D01*
X136766503Y-62769737D01*
X136921153Y-62800499D01*
X136921156Y-62800500D01*
X136921158Y-62800500D01*
X137078844Y-62800500D01*
X137078845Y-62800499D01*
X137233497Y-62769737D01*
X137379179Y-62709394D01*
X137510289Y-62621789D01*
X137621789Y-62510289D01*
X137709394Y-62379179D01*
X137769737Y-62233497D01*
X137800500Y-62078842D01*
X137800500Y-61921158D01*
X137800500Y-61921155D01*
X137800499Y-61921153D01*
X137769737Y-61766503D01*
X137769735Y-61766498D01*
X137709397Y-61620827D01*
X137709390Y-61620814D01*
X137621789Y-61489711D01*
X137621786Y-61489707D01*
X137510292Y-61378213D01*
X137510288Y-61378210D01*
X137379185Y-61290609D01*
X137379172Y-61290602D01*
X137233501Y-61230264D01*
X137233489Y-61230261D01*
X137200309Y-61223661D01*
X137138398Y-61191276D01*
X137103824Y-61130561D01*
X137100500Y-61102044D01*
X137100500Y-58749097D01*
X137120185Y-58682058D01*
X137172989Y-58636303D01*
X137242147Y-58626359D01*
X137305703Y-58655384D01*
X137312181Y-58661416D01*
X141863181Y-63212416D01*
X141896666Y-63273739D01*
X141899500Y-63300097D01*
X141899500Y-83143330D01*
X141899499Y-83143348D01*
X141899499Y-83309054D01*
X141899498Y-83309054D01*
X141940423Y-83461785D01*
X141969358Y-83511900D01*
X141969359Y-83511904D01*
X141969360Y-83511904D01*
X142019479Y-83598714D01*
X142019481Y-83598717D01*
X142138349Y-83717585D01*
X142138355Y-83717590D01*
X151708181Y-93287416D01*
X151741666Y-93348739D01*
X151744500Y-93375097D01*
X151744500Y-94200001D01*
X151744501Y-94200019D01*
X151755000Y-94302796D01*
X151755001Y-94302799D01*
X151810185Y-94469331D01*
X151810187Y-94469336D01*
X151817088Y-94480524D01*
X151902288Y-94618656D01*
X152026344Y-94742712D01*
X152175666Y-94834814D01*
X152342203Y-94889999D01*
X152444991Y-94900500D01*
X153595008Y-94900499D01*
X153697797Y-94889999D01*
X153864334Y-94834814D01*
X154013656Y-94742712D01*
X154137712Y-94618656D01*
X154229814Y-94469334D01*
X154241028Y-94435494D01*
X154280801Y-94378050D01*
X154345317Y-94351228D01*
X154358733Y-94350500D01*
X159641267Y-94350500D01*
X159708306Y-94370185D01*
X159754061Y-94422989D01*
X159758972Y-94435494D01*
X159770184Y-94469328D01*
X159770187Y-94469336D01*
X159777088Y-94480524D01*
X159862288Y-94618656D01*
X159986344Y-94742712D01*
X160135666Y-94834814D01*
X160302203Y-94889999D01*
X160404991Y-94900500D01*
X161555008Y-94900499D01*
X161657797Y-94889999D01*
X161824334Y-94834814D01*
X161824335Y-94834812D01*
X161831189Y-94832542D01*
X161831700Y-94834084D01*
X161892167Y-94824898D01*
X161955952Y-94853415D01*
X161994195Y-94911890D01*
X161999500Y-94947773D01*
X161999500Y-97375500D01*
X161979815Y-97442539D01*
X161927011Y-97488294D01*
X161875500Y-97499500D01*
X102624500Y-97499500D01*
X102557461Y-97479815D01*
X102511706Y-97427011D01*
X102500500Y-97375500D01*
X102500500Y-78119785D01*
X102520185Y-78052746D01*
X102572989Y-78006991D01*
X102642147Y-77997047D01*
X102686497Y-78012396D01*
X102768216Y-78059577D01*
X102920943Y-78100500D01*
X103079057Y-78100500D01*
X112420234Y-78100500D01*
X112487273Y-78120185D01*
X112489125Y-78121398D01*
X112620814Y-78209390D01*
X112620827Y-78209397D01*
X112764337Y-78268840D01*
X112766503Y-78269737D01*
X112921153Y-78300499D01*
X112921156Y-78300500D01*
X112921158Y-78300500D01*
X113078844Y-78300500D01*
X113078845Y-78300499D01*
X113233497Y-78269737D01*
X113379179Y-78209394D01*
X113510289Y-78121789D01*
X113621789Y-78010289D01*
X113709394Y-77879179D01*
X113769737Y-77733497D01*
X113800500Y-77578842D01*
X113800500Y-77421158D01*
X113800500Y-77421155D01*
X113800499Y-77421153D01*
X113769738Y-77266510D01*
X113769737Y-77266503D01*
X113731514Y-77174223D01*
X113709397Y-77120827D01*
X113709390Y-77120814D01*
X113621789Y-76989711D01*
X113621786Y-76989707D01*
X113510292Y-76878213D01*
X113510288Y-76878210D01*
X113379185Y-76790609D01*
X113379172Y-76790602D01*
X113233501Y-76730264D01*
X113233489Y-76730261D01*
X113078845Y-76699500D01*
X113078842Y-76699500D01*
X112921158Y-76699500D01*
X112921155Y-76699500D01*
X112766510Y-76730261D01*
X112766498Y-76730264D01*
X112620827Y-76790602D01*
X112620814Y-76790609D01*
X112489125Y-76878602D01*
X112422447Y-76899480D01*
X112420234Y-76899500D01*
X103724500Y-76899500D01*
X103657461Y-76879815D01*
X103611706Y-76827011D01*
X103600500Y-76775500D01*
X103600500Y-73407797D01*
X103620185Y-73340758D01*
X103672989Y-73295003D01*
X103742147Y-73285059D01*
X103793390Y-73304694D01*
X103886086Y-73366632D01*
X103886088Y-73366633D01*
X103886092Y-73366635D01*
X104017205Y-73420943D01*
X104068165Y-73442051D01*
X104068169Y-73442051D01*
X104068170Y-73442052D01*
X104261456Y-73480500D01*
X104261459Y-73480500D01*
X104458543Y-73480500D01*
X104588582Y-73454632D01*
X104651835Y-73442051D01*
X104833914Y-73366632D01*
X104872992Y-73340521D01*
X104997784Y-73257138D01*
X104997785Y-73257136D01*
X105137136Y-73117785D01*
X105137139Y-73117782D01*
X105246632Y-72953914D01*
X105322051Y-72771835D01*
X105334632Y-72708582D01*
X105360500Y-72578543D01*
X111999499Y-72578543D01*
X112037947Y-72771829D01*
X112037950Y-72771839D01*
X112113364Y-72953907D01*
X112113371Y-72953920D01*
X112222860Y-73117781D01*
X112222863Y-73117785D01*
X112362216Y-73257138D01*
X112526079Y-73366628D01*
X112526092Y-73366635D01*
X112657205Y-73420943D01*
X112708165Y-73442051D01*
X112708169Y-73442051D01*
X112708170Y-73442052D01*
X112901456Y-73480500D01*
X112901459Y-73480500D01*
X113098543Y-73480500D01*
X113228582Y-73454632D01*
X113291835Y-73442051D01*
X113473914Y-73366632D01*
X113512992Y-73340521D01*
X113637784Y-73257138D01*
X113637785Y-73257136D01*
X113777136Y-73117785D01*
X113777139Y-73117782D01*
X113886632Y-72953914D01*
X113962051Y-72771835D01*
X113974632Y-72708582D01*
X114000500Y-72578543D01*
X114000500Y-71781456D01*
X113962052Y-71588170D01*
X113962051Y-71588169D01*
X113962051Y-71588165D01*
X113938612Y-71531578D01*
X113886635Y-71406092D01*
X113886628Y-71406079D01*
X113777139Y-71242218D01*
X113777136Y-71242214D01*
X113637785Y-71102863D01*
X113637781Y-71102860D01*
X113473920Y-70993371D01*
X113473907Y-70993364D01*
X113291839Y-70917950D01*
X113291829Y-70917947D01*
X113098543Y-70879500D01*
X113098541Y-70879500D01*
X112901459Y-70879500D01*
X112901457Y-70879500D01*
X112708170Y-70917947D01*
X112708160Y-70917950D01*
X112526092Y-70993364D01*
X112526079Y-70993371D01*
X112362218Y-71102860D01*
X112362214Y-71102863D01*
X112222863Y-71242214D01*
X112222860Y-71242218D01*
X112113371Y-71406079D01*
X112113364Y-71406092D01*
X112037950Y-71588160D01*
X112037947Y-71588170D01*
X111999500Y-71781456D01*
X111999500Y-71781459D01*
X111999500Y-72578541D01*
X111999500Y-72578543D01*
X111999499Y-72578543D01*
X105360500Y-72578543D01*
X105360500Y-71781456D01*
X105322052Y-71588170D01*
X105322051Y-71588169D01*
X105322051Y-71588165D01*
X105298612Y-71531578D01*
X105246635Y-71406092D01*
X105246628Y-71406079D01*
X105137139Y-71242218D01*
X105137136Y-71242214D01*
X104997785Y-71102863D01*
X104997781Y-71102860D01*
X104833920Y-70993371D01*
X104833907Y-70993364D01*
X104651839Y-70917950D01*
X104651829Y-70917947D01*
X104458543Y-70879500D01*
X104458541Y-70879500D01*
X104261459Y-70879500D01*
X104261457Y-70879500D01*
X104068170Y-70917947D01*
X104068160Y-70917950D01*
X103886092Y-70993364D01*
X103886079Y-70993371D01*
X103793391Y-71055304D01*
X103726713Y-71076182D01*
X103659333Y-71057697D01*
X103612643Y-71005718D01*
X103600500Y-70952202D01*
X103600500Y-70010991D01*
X103620185Y-69943952D01*
X103672989Y-69898197D01*
X103742147Y-69888253D01*
X103786499Y-69903604D01*
X103796845Y-69909577D01*
X103908648Y-69939534D01*
X103949571Y-69950500D01*
X103949572Y-69950500D01*
X113244702Y-69950500D01*
X113244718Y-69950501D01*
X113252314Y-69950501D01*
X113410425Y-69950501D01*
X113410428Y-69950501D01*
X113563156Y-69909577D01*
X113633929Y-69868716D01*
X113700087Y-69830520D01*
X113811891Y-69718716D01*
X113811891Y-69718714D01*
X113822095Y-69708511D01*
X113822099Y-69708506D01*
X114158506Y-69372099D01*
X114158511Y-69372095D01*
X114168714Y-69361891D01*
X114168716Y-69361891D01*
X114280520Y-69250087D01*
X114359577Y-69113155D01*
X114394912Y-68981284D01*
X114400500Y-68960429D01*
X114400500Y-68802314D01*
X114400500Y-67039572D01*
X114359577Y-66886845D01*
X114359573Y-66886838D01*
X114280524Y-66749919D01*
X114280521Y-66749915D01*
X114280520Y-66749913D01*
X114168716Y-66638109D01*
X114168715Y-66638108D01*
X114164385Y-66633778D01*
X114164374Y-66633768D01*
X113818961Y-66288355D01*
X113818959Y-66288352D01*
X113785102Y-66254495D01*
X113751617Y-66193172D01*
X113756601Y-66123480D01*
X113785103Y-66079132D01*
X113827418Y-66036818D01*
X113888741Y-66003333D01*
X113915098Y-66000500D01*
X125099903Y-66000500D01*
X125166942Y-66020185D01*
X125187584Y-66036819D01*
X127665425Y-68514660D01*
X127698910Y-68575983D01*
X127699361Y-68578149D01*
X127730261Y-68733491D01*
X127730264Y-68733501D01*
X127790602Y-68879172D01*
X127790609Y-68879185D01*
X127878210Y-69010288D01*
X127878213Y-69010292D01*
X127989707Y-69121786D01*
X127989711Y-69121789D01*
X128120814Y-69209390D01*
X128120827Y-69209397D01*
X128266498Y-69269735D01*
X128266503Y-69269737D01*
X128421153Y-69300499D01*
X128421156Y-69300500D01*
X128421158Y-69300500D01*
X128578844Y-69300500D01*
X128578845Y-69300499D01*
X128733497Y-69269737D01*
X128879179Y-69209394D01*
X129010289Y-69121789D01*
X129121789Y-69010289D01*
X129209394Y-68879179D01*
X129232263Y-68823969D01*
X129276104Y-68769565D01*
X129342398Y-68747500D01*
X129410097Y-68764779D01*
X129434505Y-68783740D01*
X137238584Y-76587819D01*
X137272069Y-76649142D01*
X137267085Y-76718834D01*
X137225213Y-76774767D01*
X137159749Y-76799184D01*
X137150903Y-76799500D01*
X136774998Y-76799500D01*
X136774980Y-76799501D01*
X136672203Y-76810000D01*
X136672200Y-76810001D01*
X136505668Y-76865185D01*
X136505663Y-76865187D01*
X136356342Y-76957289D01*
X136232289Y-77081342D01*
X136140187Y-77230663D01*
X136140186Y-77230666D01*
X136085001Y-77397203D01*
X136085001Y-77397204D01*
X136085000Y-77397204D01*
X136074500Y-77499983D01*
X136074500Y-77524901D01*
X136054815Y-77591940D01*
X136038185Y-77612578D01*
X136019480Y-77631284D01*
X136019478Y-77631286D01*
X132204358Y-81446405D01*
X132143035Y-81479890D01*
X132073343Y-81474906D01*
X132017410Y-81433034D01*
X131992993Y-81367570D01*
X131996902Y-81326634D01*
X132013000Y-81266557D01*
X132013000Y-81108443D01*
X132013000Y-79192507D01*
X132032685Y-79125468D01*
X132071903Y-79086968D01*
X132143656Y-79042712D01*
X132267712Y-78918656D01*
X132359814Y-78769334D01*
X132414999Y-78602797D01*
X132425500Y-78500009D01*
X132425499Y-77499992D01*
X132414999Y-77397203D01*
X132359814Y-77230666D01*
X132267712Y-77081344D01*
X132143656Y-76957288D01*
X132143655Y-76957287D01*
X132071902Y-76913029D01*
X132025178Y-76861081D01*
X132013000Y-76807491D01*
X132013000Y-73333446D01*
X132013000Y-73333443D01*
X131992555Y-73257139D01*
X131972077Y-73180715D01*
X131920733Y-73091785D01*
X131893020Y-73043784D01*
X131781216Y-72931980D01*
X131781215Y-72931979D01*
X131776885Y-72927649D01*
X131776874Y-72927639D01*
X129834574Y-70985339D01*
X129801089Y-70924016D01*
X129800638Y-70921849D01*
X129769738Y-70766510D01*
X129769737Y-70766503D01*
X129744310Y-70705116D01*
X129709397Y-70620827D01*
X129709390Y-70620814D01*
X129621789Y-70489711D01*
X129621786Y-70489707D01*
X129510292Y-70378213D01*
X129510288Y-70378210D01*
X129379185Y-70290609D01*
X129379172Y-70290602D01*
X129233501Y-70230264D01*
X129233489Y-70230261D01*
X129078845Y-70199500D01*
X129078842Y-70199500D01*
X128921158Y-70199500D01*
X128921155Y-70199500D01*
X128766510Y-70230261D01*
X128766498Y-70230264D01*
X128620827Y-70290602D01*
X128620814Y-70290609D01*
X128489711Y-70378210D01*
X128489707Y-70378213D01*
X128378213Y-70489707D01*
X128378210Y-70489711D01*
X128290609Y-70620814D01*
X128290602Y-70620827D01*
X128230264Y-70766498D01*
X128230261Y-70766510D01*
X128199500Y-70921153D01*
X128199500Y-71078846D01*
X128230261Y-71233489D01*
X128230264Y-71233501D01*
X128290602Y-71379172D01*
X128290609Y-71379185D01*
X128378210Y-71510288D01*
X128378213Y-71510292D01*
X128489707Y-71621786D01*
X128489711Y-71621789D01*
X128620814Y-71709390D01*
X128620827Y-71709397D01*
X128766498Y-71769735D01*
X128766503Y-71769737D01*
X128825418Y-71781456D01*
X128921849Y-71800638D01*
X128983760Y-71833023D01*
X128985339Y-71834574D01*
X130775681Y-73624916D01*
X130809166Y-73686239D01*
X130812000Y-73712597D01*
X130812000Y-76807491D01*
X130792315Y-76874530D01*
X130753098Y-76913029D01*
X130681344Y-76957287D01*
X130681343Y-76957288D01*
X130587681Y-77050951D01*
X130526358Y-77084436D01*
X130456666Y-77079452D01*
X130412319Y-77050951D01*
X130318657Y-76957289D01*
X130318656Y-76957288D01*
X130190451Y-76878211D01*
X130169336Y-76865187D01*
X130169331Y-76865185D01*
X130156946Y-76861081D01*
X130002797Y-76810001D01*
X130002795Y-76810000D01*
X129900010Y-76799500D01*
X129274998Y-76799500D01*
X129274980Y-76799501D01*
X129172203Y-76810000D01*
X129172200Y-76810001D01*
X129005668Y-76865185D01*
X129005663Y-76865187D01*
X128856342Y-76957289D01*
X128732289Y-77081342D01*
X128640187Y-77230663D01*
X128640186Y-77230666D01*
X128585001Y-77397203D01*
X128585001Y-77397204D01*
X128585000Y-77397204D01*
X128574500Y-77499983D01*
X128574500Y-78112401D01*
X128554815Y-78179440D01*
X128538180Y-78200082D01*
X124685466Y-82052799D01*
X123425084Y-83313181D01*
X123363761Y-83346666D01*
X123337403Y-83349500D01*
X122159798Y-83349500D01*
X122092759Y-83329815D01*
X122054259Y-83290597D01*
X122017712Y-83231344D01*
X121893656Y-83107288D01*
X121890342Y-83105243D01*
X121888546Y-83103248D01*
X121887989Y-83102807D01*
X121888064Y-83102711D01*
X121843618Y-83053297D01*
X121832397Y-82984334D01*
X121860240Y-82920252D01*
X121890348Y-82894165D01*
X121893342Y-82892318D01*
X122017315Y-82768345D01*
X122109356Y-82619124D01*
X122109358Y-82619119D01*
X122164505Y-82452697D01*
X122164506Y-82452690D01*
X122174999Y-82349986D01*
X122175000Y-82349973D01*
X122175000Y-82300000D01*
X119725001Y-82300000D01*
X119725001Y-82349986D01*
X119735494Y-82452697D01*
X119790641Y-82619119D01*
X119790643Y-82619124D01*
X119882684Y-82768345D01*
X120006655Y-82892316D01*
X120006659Y-82892319D01*
X120009656Y-82894168D01*
X120011279Y-82895972D01*
X120012323Y-82896798D01*
X120012181Y-82896976D01*
X120056381Y-82946116D01*
X120067602Y-83015079D01*
X120039759Y-83079161D01*
X120009661Y-83105241D01*
X120006349Y-83107283D01*
X120006343Y-83107288D01*
X119882289Y-83231342D01*
X119882288Y-83231344D01*
X119854121Y-83277011D01*
X119845741Y-83290597D01*
X119793793Y-83337321D01*
X119740202Y-83349500D01*
X116224500Y-83349500D01*
X116157461Y-83329815D01*
X116111706Y-83277011D01*
X116100500Y-83225500D01*
X116100500Y-78386555D01*
X116120185Y-78319516D01*
X116172989Y-78273761D01*
X116242147Y-78263817D01*
X116260411Y-78268840D01*
X116260676Y-78267969D01*
X116266492Y-78269732D01*
X116266503Y-78269737D01*
X116421153Y-78300499D01*
X116421156Y-78300500D01*
X116421158Y-78300500D01*
X116578844Y-78300500D01*
X116578845Y-78300499D01*
X116733497Y-78269737D01*
X116879179Y-78209394D01*
X116879185Y-78209390D01*
X117010873Y-78121399D01*
X117077550Y-78100521D01*
X117079764Y-78100501D01*
X117129054Y-78100501D01*
X117129057Y-78100501D01*
X117281785Y-78059577D01*
X117331904Y-78030639D01*
X117418716Y-77980520D01*
X117530520Y-77868716D01*
X117530520Y-77868714D01*
X117540728Y-77858507D01*
X117540729Y-77858504D01*
X118737820Y-76661413D01*
X118799142Y-76627930D01*
X118868834Y-76632914D01*
X118924767Y-76674786D01*
X118949184Y-76740250D01*
X118949500Y-76749096D01*
X118949500Y-78649902D01*
X118929815Y-78716941D01*
X118913181Y-78737583D01*
X118519481Y-79131282D01*
X118519480Y-79131284D01*
X118476995Y-79204872D01*
X118469361Y-79218094D01*
X118469359Y-79218096D01*
X118440425Y-79268209D01*
X118440424Y-79268210D01*
X118426893Y-79318709D01*
X118399499Y-79420943D01*
X118399499Y-79420945D01*
X118399499Y-79589046D01*
X118399500Y-79589059D01*
X118399500Y-80420234D01*
X118379815Y-80487273D01*
X118378602Y-80489125D01*
X118290609Y-80620814D01*
X118290602Y-80620827D01*
X118230264Y-80766498D01*
X118230261Y-80766510D01*
X118199500Y-80921153D01*
X118199500Y-81078846D01*
X118230261Y-81233489D01*
X118230264Y-81233501D01*
X118290602Y-81379172D01*
X118290609Y-81379185D01*
X118378210Y-81510288D01*
X118378213Y-81510292D01*
X118489707Y-81621786D01*
X118489711Y-81621789D01*
X118620814Y-81709390D01*
X118620827Y-81709397D01*
X118766498Y-81769735D01*
X118766503Y-81769737D01*
X118918644Y-81800000D01*
X118921153Y-81800499D01*
X118921156Y-81800500D01*
X118921158Y-81800500D01*
X119078844Y-81800500D01*
X119078845Y-81800499D01*
X119233497Y-81769737D01*
X119379179Y-81709394D01*
X119510289Y-81621789D01*
X119517554Y-81614524D01*
X119578876Y-81581036D01*
X119648568Y-81586017D01*
X119704503Y-81627886D01*
X119728923Y-81693350D01*
X119728597Y-81714801D01*
X119725001Y-81750006D01*
X119725000Y-81750026D01*
X119725000Y-81800000D01*
X120700000Y-81800000D01*
X121200000Y-81800000D01*
X122174999Y-81800000D01*
X122174999Y-81750028D01*
X122174998Y-81750013D01*
X122164505Y-81647302D01*
X122109358Y-81480880D01*
X122109356Y-81480875D01*
X122017315Y-81331654D01*
X121893345Y-81207684D01*
X121744124Y-81115643D01*
X121744119Y-81115641D01*
X121577697Y-81060494D01*
X121577690Y-81060493D01*
X121474986Y-81050000D01*
X121200000Y-81050000D01*
X121200000Y-81800000D01*
X120700000Y-81800000D01*
X120700000Y-81050000D01*
X120425029Y-81050000D01*
X120425012Y-81050001D01*
X120322302Y-81060494D01*
X120155880Y-81115641D01*
X120155875Y-81115643D01*
X120006653Y-81207684D01*
X120006651Y-81207686D01*
X120006357Y-81207981D01*
X120006105Y-81208118D01*
X120000993Y-81212161D01*
X120000301Y-81211286D01*
X119945031Y-81241461D01*
X119875340Y-81236470D01*
X119819410Y-81194593D01*
X119794999Y-81129127D01*
X119797066Y-81096102D01*
X119800500Y-81078842D01*
X119800500Y-80921158D01*
X119800500Y-80921155D01*
X119800499Y-80921153D01*
X119774531Y-80790606D01*
X119769737Y-80766503D01*
X119756062Y-80733489D01*
X119709397Y-80620827D01*
X119709390Y-80620814D01*
X119621398Y-80489125D01*
X119600520Y-80422447D01*
X119600500Y-80420234D01*
X119600500Y-79800096D01*
X119620185Y-79733057D01*
X119636815Y-79712419D01*
X119908506Y-79440727D01*
X119908511Y-79440724D01*
X119918714Y-79430520D01*
X119918716Y-79430520D01*
X120030520Y-79318716D01*
X120109577Y-79181784D01*
X120150500Y-79029057D01*
X120150500Y-76209797D01*
X120170185Y-76142758D01*
X120209403Y-76104258D01*
X120268656Y-76067712D01*
X120392712Y-75943656D01*
X120394752Y-75940347D01*
X120396745Y-75938555D01*
X120397193Y-75937989D01*
X120397289Y-75938065D01*
X120446694Y-75893623D01*
X120515656Y-75882395D01*
X120579740Y-75910234D01*
X120605829Y-75940339D01*
X120607681Y-75943341D01*
X120607683Y-75943344D01*
X120731654Y-76067315D01*
X120880875Y-76159356D01*
X120880880Y-76159358D01*
X121047302Y-76214505D01*
X121047309Y-76214506D01*
X121150019Y-76224999D01*
X121700000Y-76224999D01*
X121749972Y-76224999D01*
X121749986Y-76224998D01*
X121852697Y-76214505D01*
X122019119Y-76159358D01*
X122019124Y-76159356D01*
X122168345Y-76067315D01*
X122292315Y-75943345D01*
X122384356Y-75794124D01*
X122384358Y-75794119D01*
X122439505Y-75627697D01*
X122439506Y-75627690D01*
X122449999Y-75524986D01*
X122450000Y-75524973D01*
X122450000Y-75250000D01*
X121700000Y-75250000D01*
X121700000Y-76224999D01*
X121150019Y-76224999D01*
X121199999Y-76224998D01*
X121200000Y-76224998D01*
X121200000Y-74750000D01*
X121700000Y-74750000D01*
X122449999Y-74750000D01*
X122449999Y-74475028D01*
X122449998Y-74475013D01*
X122439505Y-74372302D01*
X122384358Y-74205880D01*
X122384356Y-74205875D01*
X122292315Y-74056654D01*
X122168345Y-73932684D01*
X122019124Y-73840643D01*
X122019119Y-73840641D01*
X121852697Y-73785494D01*
X121852690Y-73785493D01*
X121749986Y-73775000D01*
X121700000Y-73775000D01*
X121700000Y-74750000D01*
X121200000Y-74750000D01*
X121200000Y-73775000D01*
X121199999Y-73774999D01*
X121150029Y-73775000D01*
X121150011Y-73775001D01*
X121047302Y-73785494D01*
X120880880Y-73840641D01*
X120880875Y-73840643D01*
X120731654Y-73932684D01*
X120607683Y-74056655D01*
X120607679Y-74056660D01*
X120605826Y-74059665D01*
X120604018Y-74061290D01*
X120603202Y-74062323D01*
X120603025Y-74062183D01*
X120553874Y-74106385D01*
X120484911Y-74117601D01*
X120420831Y-74089752D01*
X120394753Y-74059653D01*
X120394737Y-74059628D01*
X120392712Y-74056344D01*
X120268656Y-73932288D01*
X120119334Y-73840186D01*
X119952797Y-73785001D01*
X119952795Y-73785000D01*
X119850010Y-73774500D01*
X119249998Y-73774500D01*
X119249980Y-73774501D01*
X119147203Y-73785000D01*
X119147200Y-73785001D01*
X118980668Y-73840185D01*
X118980663Y-73840187D01*
X118831342Y-73932289D01*
X118707289Y-74056342D01*
X118615187Y-74205663D01*
X118615185Y-74205668D01*
X118615115Y-74205880D01*
X118560001Y-74372203D01*
X118560001Y-74372204D01*
X118560000Y-74372204D01*
X118549500Y-74474983D01*
X118549500Y-75099902D01*
X118529815Y-75166941D01*
X118513181Y-75187583D01*
X116959671Y-76741092D01*
X116898348Y-76774577D01*
X116828656Y-76769593D01*
X116824538Y-76767973D01*
X116814727Y-76763909D01*
X116733497Y-76730263D01*
X116733492Y-76730262D01*
X116733489Y-76730261D01*
X116578845Y-76699500D01*
X116578842Y-76699500D01*
X116421158Y-76699500D01*
X116421155Y-76699500D01*
X116266510Y-76730261D01*
X116260676Y-76732031D01*
X116259873Y-76729385D01*
X116202056Y-76735396D01*
X116139687Y-76703902D01*
X116104245Y-76643689D01*
X116100500Y-76613444D01*
X116100500Y-71579765D01*
X116120185Y-71512726D01*
X116121398Y-71510874D01*
X116209390Y-71379185D01*
X116209390Y-71379184D01*
X116209394Y-71379179D01*
X116269737Y-71233497D01*
X116300500Y-71078842D01*
X116300500Y-70921158D01*
X116300500Y-70921155D01*
X116300499Y-70921153D01*
X116269738Y-70766510D01*
X116269737Y-70766503D01*
X116244310Y-70705116D01*
X116209397Y-70620827D01*
X116209390Y-70620814D01*
X116121789Y-70489711D01*
X116121786Y-70489707D01*
X116010292Y-70378213D01*
X116010288Y-70378210D01*
X115879185Y-70290609D01*
X115879172Y-70290602D01*
X115733501Y-70230264D01*
X115733489Y-70230261D01*
X115578845Y-70199500D01*
X115578842Y-70199500D01*
X115421158Y-70199500D01*
X115421155Y-70199500D01*
X115266510Y-70230261D01*
X115266498Y-70230264D01*
X115120827Y-70290602D01*
X115120814Y-70290609D01*
X114989711Y-70378210D01*
X114989707Y-70378213D01*
X114878213Y-70489707D01*
X114878210Y-70489711D01*
X114790609Y-70620814D01*
X114790602Y-70620827D01*
X114730264Y-70766498D01*
X114730261Y-70766510D01*
X114699500Y-70921153D01*
X114699500Y-71078846D01*
X114730261Y-71233489D01*
X114730264Y-71233501D01*
X114790602Y-71379172D01*
X114790609Y-71379185D01*
X114878602Y-71510874D01*
X114899480Y-71577551D01*
X114899500Y-71579765D01*
X114899500Y-83913330D01*
X114899499Y-83913348D01*
X114899499Y-84079054D01*
X114899498Y-84079054D01*
X114899499Y-84079057D01*
X114940423Y-84231785D01*
X114940424Y-84231787D01*
X114940423Y-84231787D01*
X114950945Y-84250010D01*
X114950946Y-84250011D01*
X115019477Y-84368712D01*
X115019481Y-84368717D01*
X115131284Y-84480520D01*
X115218095Y-84530639D01*
X115218097Y-84530641D01*
X115256151Y-84552611D01*
X115268215Y-84559577D01*
X115420943Y-84600501D01*
X115420946Y-84600501D01*
X115579054Y-84600501D01*
X115579057Y-84600501D01*
X115731785Y-84559577D01*
X115731786Y-84559575D01*
X115739635Y-84557473D01*
X115739820Y-84558165D01*
X115778364Y-84550500D01*
X119740202Y-84550500D01*
X119807241Y-84570185D01*
X119845739Y-84609401D01*
X119882288Y-84668656D01*
X120006344Y-84792712D01*
X120155666Y-84884814D01*
X120264505Y-84920879D01*
X120321949Y-84960652D01*
X120348772Y-85025167D01*
X120349500Y-85038585D01*
X120349500Y-91363330D01*
X120349499Y-91363348D01*
X120349499Y-91529054D01*
X120349498Y-91529054D01*
X120349499Y-91529057D01*
X120390423Y-91681785D01*
X120419290Y-91731784D01*
X120419290Y-91731785D01*
X120469475Y-91818709D01*
X120469479Y-91818714D01*
X120469480Y-91818716D01*
X120519480Y-91868716D01*
X120550772Y-91900008D01*
X120631284Y-91980520D01*
X120631286Y-91980521D01*
X120631290Y-91980524D01*
X120768209Y-92059573D01*
X120768216Y-92059577D01*
X120920943Y-92100501D01*
X120920945Y-92100501D01*
X121086654Y-92100501D01*
X121086670Y-92100500D01*
X123554092Y-92100500D01*
X123621131Y-92120185D01*
X123659636Y-92164271D01*
X123661395Y-92163187D01*
X123665185Y-92169332D01*
X123665186Y-92169334D01*
X123757288Y-92318656D01*
X123881344Y-92442712D01*
X124030094Y-92534461D01*
X124076818Y-92586409D01*
X124088041Y-92655372D01*
X124060197Y-92719454D01*
X124030094Y-92745538D01*
X124011044Y-92757289D01*
X123881342Y-92837289D01*
X123757289Y-92961342D01*
X123757288Y-92961344D01*
X123685945Y-93077011D01*
X123661395Y-93116813D01*
X123659600Y-93115706D01*
X123620313Y-93160337D01*
X123554092Y-93179500D01*
X120306669Y-93179500D01*
X120306653Y-93179499D01*
X120299057Y-93179499D01*
X120140943Y-93179499D01*
X120033587Y-93208265D01*
X119988210Y-93220424D01*
X119988209Y-93220425D01*
X119938096Y-93249359D01*
X119938095Y-93249360D01*
X119894689Y-93274420D01*
X119851285Y-93299479D01*
X119851282Y-93299481D01*
X119812181Y-93338583D01*
X119750858Y-93372068D01*
X119681166Y-93367084D01*
X119625233Y-93325212D01*
X119600816Y-93259748D01*
X119600500Y-93250902D01*
X119600500Y-89079765D01*
X119620185Y-89012726D01*
X119621398Y-89010874D01*
X119709390Y-88879185D01*
X119709390Y-88879184D01*
X119709394Y-88879179D01*
X119769737Y-88733497D01*
X119800500Y-88578842D01*
X119800500Y-88421158D01*
X119800500Y-88421155D01*
X119800499Y-88421153D01*
X119792580Y-88381342D01*
X119769737Y-88266503D01*
X119769735Y-88266498D01*
X119709397Y-88120827D01*
X119709390Y-88120814D01*
X119621789Y-87989711D01*
X119621786Y-87989707D01*
X119510292Y-87878213D01*
X119510288Y-87878210D01*
X119379185Y-87790609D01*
X119379172Y-87790602D01*
X119233501Y-87730264D01*
X119233489Y-87730261D01*
X119078845Y-87699500D01*
X119078842Y-87699500D01*
X118921158Y-87699500D01*
X118921155Y-87699500D01*
X118766510Y-87730261D01*
X118766498Y-87730264D01*
X118620827Y-87790602D01*
X118620814Y-87790609D01*
X118489711Y-87878210D01*
X118489707Y-87878213D01*
X118378213Y-87989707D01*
X118378210Y-87989711D01*
X118290609Y-88120814D01*
X118290602Y-88120827D01*
X118230264Y-88266498D01*
X118230261Y-88266510D01*
X118199500Y-88421153D01*
X118199500Y-88578846D01*
X118230261Y-88733489D01*
X118230264Y-88733501D01*
X118290602Y-88879172D01*
X118290609Y-88879185D01*
X118378602Y-89010874D01*
X118399480Y-89077551D01*
X118399500Y-89079765D01*
X118399500Y-94079056D01*
X118440423Y-94231783D01*
X118440426Y-94231790D01*
X118519475Y-94368709D01*
X118519479Y-94368714D01*
X118519480Y-94368716D01*
X118631284Y-94480520D01*
X118631286Y-94480521D01*
X118631290Y-94480524D01*
X118768209Y-94559573D01*
X118768216Y-94559577D01*
X118920943Y-94600500D01*
X119913331Y-94600500D01*
X119913347Y-94600501D01*
X119920943Y-94600501D01*
X120079054Y-94600501D01*
X120079057Y-94600501D01*
X120231785Y-94559577D01*
X120281904Y-94530639D01*
X120368716Y-94480520D01*
X120432418Y-94416817D01*
X120493739Y-94383334D01*
X120520098Y-94380500D01*
X123554092Y-94380500D01*
X123621131Y-94400185D01*
X123659636Y-94444271D01*
X123661395Y-94443187D01*
X123665185Y-94449331D01*
X123665186Y-94449334D01*
X123757288Y-94598656D01*
X123881344Y-94722712D01*
X124030666Y-94814814D01*
X124197203Y-94869999D01*
X124299991Y-94880500D01*
X126100008Y-94880499D01*
X126202797Y-94869999D01*
X126369334Y-94814814D01*
X126518656Y-94722712D01*
X126642712Y-94598656D01*
X126734814Y-94449334D01*
X126789999Y-94282797D01*
X126800500Y-94180009D01*
X126800499Y-93379992D01*
X126799180Y-93367084D01*
X126789999Y-93277203D01*
X126789998Y-93277200D01*
X126780772Y-93249359D01*
X126734814Y-93110666D01*
X126642712Y-92961344D01*
X126518656Y-92837288D01*
X126518655Y-92837287D01*
X126388956Y-92757289D01*
X126369905Y-92745538D01*
X126323181Y-92693591D01*
X126311958Y-92624629D01*
X126339801Y-92560546D01*
X126369906Y-92534461D01*
X126518656Y-92442712D01*
X126642712Y-92318656D01*
X126734814Y-92169334D01*
X126734814Y-92169332D01*
X126738605Y-92163187D01*
X126740399Y-92164293D01*
X126779687Y-92119663D01*
X126845908Y-92100500D01*
X127675500Y-92100500D01*
X127742539Y-92120185D01*
X127788294Y-92172989D01*
X127799500Y-92224500D01*
X127799500Y-94200019D01*
X127810001Y-94302801D01*
X127865184Y-94469333D01*
X127865189Y-94469344D01*
X127957285Y-94618653D01*
X127957288Y-94618657D01*
X128081342Y-94742711D01*
X128081346Y-94742714D01*
X128230655Y-94834810D01*
X128230658Y-94834811D01*
X128230664Y-94834815D01*
X128397200Y-94889999D01*
X128499988Y-94900500D01*
X128499993Y-94900500D01*
X134500007Y-94900500D01*
X134500012Y-94900500D01*
X134602800Y-94889999D01*
X134769336Y-94834815D01*
X134918657Y-94742712D01*
X135042712Y-94618657D01*
X135134815Y-94469336D01*
X135189999Y-94302800D01*
X135200500Y-94200012D01*
X135200500Y-88799988D01*
X135189999Y-88697200D01*
X135134815Y-88530664D01*
X135134811Y-88530658D01*
X135134810Y-88530655D01*
X135042714Y-88381346D01*
X135042713Y-88381344D01*
X135042712Y-88381343D01*
X134918657Y-88257288D01*
X134918653Y-88257285D01*
X134769344Y-88165189D01*
X134769338Y-88165186D01*
X134769336Y-88165185D01*
X134768838Y-88165020D01*
X134602801Y-88110001D01*
X134500019Y-88099500D01*
X134500012Y-88099500D01*
X128499988Y-88099500D01*
X128499980Y-88099500D01*
X128397198Y-88110001D01*
X128230666Y-88165184D01*
X128230655Y-88165189D01*
X128081346Y-88257285D01*
X128081342Y-88257288D01*
X127957288Y-88381342D01*
X127957285Y-88381346D01*
X127865189Y-88530655D01*
X127865184Y-88530666D01*
X127810001Y-88697198D01*
X127799500Y-88799980D01*
X127799500Y-90775500D01*
X127779815Y-90842539D01*
X127727011Y-90888294D01*
X127675500Y-90899500D01*
X126845908Y-90899500D01*
X126778869Y-90879815D01*
X126740363Y-90835728D01*
X126738605Y-90836813D01*
X126734814Y-90830666D01*
X126642712Y-90681344D01*
X126518656Y-90557288D01*
X126369428Y-90465244D01*
X126322705Y-90413297D01*
X126311482Y-90344334D01*
X126339326Y-90280252D01*
X126369430Y-90254167D01*
X126518343Y-90162317D01*
X126642315Y-90038345D01*
X126734356Y-89889124D01*
X126734358Y-89889119D01*
X126789505Y-89722697D01*
X126789506Y-89722690D01*
X126799999Y-89619986D01*
X126800000Y-89619973D01*
X126800000Y-89470000D01*
X123600001Y-89470000D01*
X123600001Y-89619986D01*
X123610494Y-89722697D01*
X123665641Y-89889119D01*
X123665643Y-89889124D01*
X123757684Y-90038345D01*
X123881654Y-90162315D01*
X124030570Y-90254167D01*
X124077294Y-90306115D01*
X124088517Y-90375078D01*
X124060673Y-90439160D01*
X124030570Y-90465245D01*
X123881342Y-90557289D01*
X123757289Y-90681342D01*
X123757288Y-90681344D01*
X123667441Y-90827011D01*
X123661395Y-90836813D01*
X123659600Y-90835706D01*
X123620313Y-90880337D01*
X123554092Y-90899500D01*
X121674500Y-90899500D01*
X121607461Y-90879815D01*
X121561706Y-90827011D01*
X121550500Y-90775500D01*
X121550500Y-88820013D01*
X123600000Y-88820013D01*
X123600000Y-88970000D01*
X124950000Y-88970000D01*
X125450000Y-88970000D01*
X126799999Y-88970000D01*
X126799999Y-88820028D01*
X126799998Y-88820013D01*
X126789505Y-88717302D01*
X126734358Y-88550880D01*
X126734356Y-88550875D01*
X126642315Y-88401654D01*
X126518345Y-88277684D01*
X126369124Y-88185643D01*
X126369119Y-88185641D01*
X126202697Y-88130494D01*
X126202690Y-88130493D01*
X126099986Y-88120000D01*
X125450000Y-88120000D01*
X125450000Y-88970000D01*
X124950000Y-88970000D01*
X124950000Y-88120000D01*
X124300028Y-88120000D01*
X124300012Y-88120001D01*
X124197302Y-88130494D01*
X124030880Y-88185641D01*
X124030875Y-88185643D01*
X123881654Y-88277684D01*
X123757684Y-88401654D01*
X123665643Y-88550875D01*
X123665641Y-88550880D01*
X123610494Y-88717302D01*
X123610493Y-88717309D01*
X123600000Y-88820013D01*
X121550500Y-88820013D01*
X121550500Y-85038585D01*
X121570185Y-84971546D01*
X121622989Y-84925791D01*
X121635489Y-84920881D01*
X121744334Y-84884814D01*
X121893656Y-84792712D01*
X122017712Y-84668656D01*
X122054259Y-84609402D01*
X122106207Y-84562679D01*
X122159798Y-84550500D01*
X123550831Y-84550500D01*
X123550847Y-84550501D01*
X123558443Y-84550501D01*
X123716554Y-84550501D01*
X123716557Y-84550501D01*
X123869285Y-84509577D01*
X123882920Y-84501704D01*
X123919591Y-84480533D01*
X123919602Y-84480525D01*
X123919614Y-84480519D01*
X124006216Y-84430520D01*
X124118020Y-84318716D01*
X124118020Y-84318714D01*
X124128224Y-84308511D01*
X124128227Y-84308506D01*
X129199918Y-79236816D01*
X129261239Y-79203333D01*
X129287587Y-79200499D01*
X129900008Y-79200499D01*
X129900016Y-79200498D01*
X129900019Y-79200498D01*
X129978245Y-79192507D01*
X130002797Y-79189999D01*
X130169334Y-79134814D01*
X130318656Y-79042712D01*
X130412319Y-78949049D01*
X130473642Y-78915564D01*
X130543334Y-78920548D01*
X130587681Y-78949049D01*
X130681344Y-79042712D01*
X130753096Y-79086968D01*
X130799821Y-79138915D01*
X130812000Y-79192507D01*
X130812000Y-80887402D01*
X130792315Y-80954441D01*
X130775681Y-80975083D01*
X130010861Y-81739902D01*
X129949538Y-81773387D01*
X129910582Y-81775579D01*
X129900028Y-81774501D01*
X129900012Y-81774500D01*
X129900009Y-81774500D01*
X129900004Y-81774500D01*
X129299998Y-81774500D01*
X129299980Y-81774501D01*
X129197203Y-81785000D01*
X129197200Y-81785001D01*
X129030668Y-81840185D01*
X129030663Y-81840187D01*
X128881342Y-81932289D01*
X128757289Y-82056342D01*
X128665187Y-82205663D01*
X128665185Y-82205668D01*
X128660657Y-82219334D01*
X128610001Y-82372203D01*
X128610001Y-82372204D01*
X128610000Y-82372204D01*
X128599500Y-82474983D01*
X128599500Y-83525001D01*
X128599501Y-83525019D01*
X128610000Y-83627796D01*
X128610001Y-83627799D01*
X128650000Y-83748505D01*
X128665186Y-83794334D01*
X128757288Y-83943656D01*
X128881344Y-84067712D01*
X129030666Y-84159814D01*
X129197203Y-84214999D01*
X129299991Y-84225500D01*
X129900008Y-84225499D01*
X129900016Y-84225498D01*
X129900019Y-84225498D01*
X129956302Y-84219748D01*
X130002797Y-84214999D01*
X130169334Y-84159814D01*
X130318656Y-84067712D01*
X130442712Y-83943656D01*
X130444461Y-83940819D01*
X130446169Y-83939283D01*
X130447193Y-83937989D01*
X130447414Y-83938163D01*
X130496406Y-83894096D01*
X130565368Y-83882872D01*
X130629451Y-83910713D01*
X130655537Y-83940817D01*
X130657288Y-83943656D01*
X130781344Y-84067712D01*
X130930666Y-84159814D01*
X131097203Y-84214999D01*
X131199991Y-84225500D01*
X131800008Y-84225499D01*
X131800016Y-84225498D01*
X131800019Y-84225498D01*
X131856302Y-84219748D01*
X131902797Y-84214999D01*
X132069334Y-84159814D01*
X132218656Y-84067712D01*
X132342712Y-83943656D01*
X132434814Y-83794334D01*
X132489999Y-83627797D01*
X132500500Y-83525009D01*
X132500499Y-82900095D01*
X132520183Y-82833057D01*
X132536813Y-82812420D01*
X136256201Y-79093032D01*
X136317522Y-79059549D01*
X136387214Y-79064533D01*
X136408976Y-79075176D01*
X136505659Y-79134810D01*
X136505660Y-79134810D01*
X136505666Y-79134814D01*
X136672203Y-79189999D01*
X136774991Y-79200500D01*
X137387401Y-79200499D01*
X137454440Y-79220183D01*
X137475082Y-79236818D01*
X137718784Y-79480520D01*
X137718786Y-79480521D01*
X137718790Y-79480524D01*
X137855709Y-79559573D01*
X137855716Y-79559577D01*
X138008443Y-79600501D01*
X138008445Y-79600501D01*
X138174154Y-79600501D01*
X138174170Y-79600500D01*
X138699903Y-79600500D01*
X138766942Y-79620185D01*
X138787584Y-79636819D01*
X139665425Y-80514660D01*
X139698910Y-80575983D01*
X139699361Y-80578149D01*
X139730261Y-80733491D01*
X139730264Y-80733501D01*
X139790602Y-80879172D01*
X139790609Y-80879185D01*
X139878210Y-81010288D01*
X139878213Y-81010292D01*
X139989707Y-81121786D01*
X139989711Y-81121789D01*
X140120814Y-81209390D01*
X140120827Y-81209397D01*
X140198238Y-81241461D01*
X140266503Y-81269737D01*
X140421153Y-81300499D01*
X140421156Y-81300500D01*
X140421158Y-81300500D01*
X140578844Y-81300500D01*
X140578845Y-81300499D01*
X140733497Y-81269737D01*
X140879179Y-81209394D01*
X141010289Y-81121789D01*
X141121789Y-81010289D01*
X141209394Y-80879179D01*
X141269737Y-80733497D01*
X141300500Y-80578842D01*
X141300500Y-80421158D01*
X141300500Y-80421155D01*
X141300499Y-80421153D01*
X141299312Y-80415185D01*
X141269737Y-80266503D01*
X141269735Y-80266498D01*
X141209397Y-80120827D01*
X141209390Y-80120814D01*
X141121789Y-79989711D01*
X141121786Y-79989707D01*
X141010292Y-79878213D01*
X141010288Y-79878210D01*
X140879185Y-79790609D01*
X140879172Y-79790602D01*
X140733501Y-79730264D01*
X140733491Y-79730261D01*
X140578149Y-79699361D01*
X140516238Y-79666976D01*
X140514660Y-79665425D01*
X140141788Y-79292553D01*
X140108303Y-79231230D01*
X140113287Y-79161538D01*
X140141785Y-79117194D01*
X140205520Y-79053460D01*
X140255639Y-78966648D01*
X140284577Y-78916529D01*
X140325500Y-78763802D01*
X140325500Y-78605687D01*
X140325500Y-71558443D01*
X140310061Y-71500821D01*
X140284577Y-71405715D01*
X140228234Y-71308127D01*
X140205520Y-71268784D01*
X140093716Y-71156980D01*
X140093715Y-71156979D01*
X140089385Y-71152649D01*
X140089374Y-71152639D01*
X139318929Y-70382194D01*
X139285444Y-70320871D01*
X139290428Y-70251179D01*
X139332300Y-70195246D01*
X139367602Y-70176808D01*
X139494334Y-70134814D01*
X139643656Y-70042712D01*
X139767712Y-69918656D01*
X139859814Y-69769334D01*
X139914999Y-69602797D01*
X139925500Y-69500009D01*
X139925499Y-68499992D01*
X139914999Y-68397203D01*
X139859814Y-68230666D01*
X139767712Y-68081344D01*
X139643656Y-67957288D01*
X139515451Y-67878211D01*
X139494336Y-67865187D01*
X139494331Y-67865185D01*
X139492862Y-67864698D01*
X139327797Y-67810001D01*
X139327795Y-67810000D01*
X139225016Y-67799500D01*
X138612597Y-67799500D01*
X138545558Y-67779815D01*
X138524916Y-67763181D01*
X134400090Y-63638355D01*
X134400088Y-63638352D01*
X134281217Y-63519481D01*
X134281216Y-63519480D01*
X134177460Y-63459577D01*
X134177459Y-63459576D01*
X134153173Y-63445555D01*
X134144285Y-63440423D01*
X134144284Y-63440422D01*
X134144283Y-63440422D01*
X134088381Y-63425443D01*
X133991557Y-63399499D01*
X133833443Y-63399499D01*
X133825847Y-63399499D01*
X133825831Y-63399500D01*
X110579766Y-63399500D01*
X110512727Y-63379815D01*
X110510875Y-63378602D01*
X110379185Y-63290609D01*
X110379172Y-63290602D01*
X110233501Y-63230264D01*
X110233489Y-63230261D01*
X110078845Y-63199500D01*
X110078842Y-63199500D01*
X109921158Y-63199500D01*
X109921155Y-63199500D01*
X109766510Y-63230261D01*
X109766498Y-63230264D01*
X109701952Y-63257000D01*
X109632482Y-63264469D01*
X109570003Y-63233193D01*
X109534352Y-63173104D01*
X109530500Y-63142439D01*
X109530500Y-57357560D01*
X109550185Y-57290521D01*
X109602989Y-57244766D01*
X109672147Y-57234822D01*
X109701947Y-57242997D01*
X109766503Y-57269737D01*
X109870991Y-57290521D01*
X109921153Y-57300499D01*
X109921156Y-57300500D01*
X109921158Y-57300500D01*
X110078844Y-57300500D01*
X110078845Y-57300499D01*
X110233497Y-57269737D01*
X110379179Y-57209394D01*
X110510289Y-57121789D01*
X110605260Y-57026817D01*
X110666581Y-56993334D01*
X110692940Y-56990500D01*
X117685859Y-56990500D01*
X117752898Y-57010185D01*
G37*
%TD.AperFunction*%
%TD*%
M02*
