M48
; DRILL file KiCad 10.0.5 date 2026-08-16T16:45:35
; FORMAT={-:-/ absolute / metric / decimal}
; #@! TF.CreationDate,2026-08-16T16:45:35+01:00
; #@! TF.GenerationSoftware,Kicad,Pcbnew,10.0.5
; #@! TF.FileFunction,Plated,1,2,PTH
FMAT,2
METRIC
; #@! TA.AperFunction,Plated,PTH,ComponentDrill
T1C0.200
; #@! TA.AperFunction,Plated,PTH,ViaDrill
T2C0.300
; #@! TA.AperFunction,Plated,PTH,ComponentDrill
T3C0.600
%
G90
G05
T1
X124.85Y-46.9
X124.85Y-48.3
X125.55Y-46.2
X125.55Y-47.6
X125.55Y-49.0
X126.25Y-46.9
X126.25Y-48.3
X126.95Y-46.2
X126.95Y-47.6
X126.95Y-49.0
X127.65Y-46.9
X127.65Y-48.3
T2
X107.83Y-64.0
X108.33Y-56.5
X110.0Y-56.5
X110.0Y-64.0
X113.0Y-77.5
X115.5Y-45.0
X115.5Y-71.0
X116.5Y-77.5
X117.0Y-47.0
X119.0Y-81.0
X119.0Y-88.5
X126.25Y-47.6
X128.5Y-68.5
X129.0Y-71.0
X134.5Y-68.5
X137.0Y-62.0
X139.0Y-43.5
X140.5Y-80.5
X143.0Y-55.0
X143.5Y-61.0
X150.5Y-77.0
X154.5Y-69.5
X154.9Y-81.5
X155.5Y-56.5
X156.5Y-69.5
X158.0Y-56.5
X158.0Y-81.5
T3
G00X104.36Y-67.45
M15
G01X104.36Y-68.55
M16
G05
G00X104.36Y-71.88
M15
G01X104.36Y-72.48
M16
G05
G00X113.0Y-67.45
M15
G01X113.0Y-68.55
M16
G05
G00X113.0Y-71.88
M15
G01X113.0Y-72.48
M16
G05
M30
