%TF.GenerationSoftware,KiCad,Pcbnew,10.0.5*%
%TF.CreationDate,2026-08-16T16:45:00+01:00*%
%TF.ProjectId,StudyWithKey,53747564-7957-4697-9468-4b65792e6b69,rev?*%
%TF.SameCoordinates,Original*%
%TF.FileFunction,Legend,Top*%
%TF.FilePolarity,Positive*%
%FSLAX46Y46*%
G04 Gerber Fmt 4.6, Leading zero omitted, Abs format (unit mm)*
G04 Created by KiCad (PCBNEW 10.0.5) date 2026-08-16 16:45:00*
%MOMM*%
%LPD*%
G01*
G04 APERTURE LIST*
%ADD10C,0.150000*%
%ADD11C,0.120000*%
G04 APERTURE END LIST*
D10*
X137833333Y-76454819D02*
X137500000Y-75978628D01*
X137261905Y-76454819D02*
X137261905Y-75454819D01*
X137261905Y-75454819D02*
X137642857Y-75454819D01*
X137642857Y-75454819D02*
X137738095Y-75502438D01*
X137738095Y-75502438D02*
X137785714Y-75550057D01*
X137785714Y-75550057D02*
X137833333Y-75645295D01*
X137833333Y-75645295D02*
X137833333Y-75788152D01*
X137833333Y-75788152D02*
X137785714Y-75883390D01*
X137785714Y-75883390D02*
X137738095Y-75931009D01*
X137738095Y-75931009D02*
X137642857Y-75978628D01*
X137642857Y-75978628D02*
X137261905Y-75978628D01*
X138214286Y-75550057D02*
X138261905Y-75502438D01*
X138261905Y-75502438D02*
X138357143Y-75454819D01*
X138357143Y-75454819D02*
X138595238Y-75454819D01*
X138595238Y-75454819D02*
X138690476Y-75502438D01*
X138690476Y-75502438D02*
X138738095Y-75550057D01*
X138738095Y-75550057D02*
X138785714Y-75645295D01*
X138785714Y-75645295D02*
X138785714Y-75740533D01*
X138785714Y-75740533D02*
X138738095Y-75883390D01*
X138738095Y-75883390D02*
X138166667Y-76454819D01*
X138166667Y-76454819D02*
X138785714Y-76454819D01*
X129478095Y-86454819D02*
X129478095Y-87264342D01*
X129478095Y-87264342D02*
X129525714Y-87359580D01*
X129525714Y-87359580D02*
X129573333Y-87407200D01*
X129573333Y-87407200D02*
X129668571Y-87454819D01*
X129668571Y-87454819D02*
X129859047Y-87454819D01*
X129859047Y-87454819D02*
X129954285Y-87407200D01*
X129954285Y-87407200D02*
X130001904Y-87359580D01*
X130001904Y-87359580D02*
X130049523Y-87264342D01*
X130049523Y-87264342D02*
X130049523Y-86454819D01*
X130478095Y-86550057D02*
X130525714Y-86502438D01*
X130525714Y-86502438D02*
X130620952Y-86454819D01*
X130620952Y-86454819D02*
X130859047Y-86454819D01*
X130859047Y-86454819D02*
X130954285Y-86502438D01*
X130954285Y-86502438D02*
X131001904Y-86550057D01*
X131001904Y-86550057D02*
X131049523Y-86645295D01*
X131049523Y-86645295D02*
X131049523Y-86740533D01*
X131049523Y-86740533D02*
X131001904Y-86883390D01*
X131001904Y-86883390D02*
X130430476Y-87454819D01*
X130430476Y-87454819D02*
X131049523Y-87454819D01*
X130383333Y-81679580D02*
X130335714Y-81727200D01*
X130335714Y-81727200D02*
X130192857Y-81774819D01*
X130192857Y-81774819D02*
X130097619Y-81774819D01*
X130097619Y-81774819D02*
X129954762Y-81727200D01*
X129954762Y-81727200D02*
X129859524Y-81631961D01*
X129859524Y-81631961D02*
X129811905Y-81536723D01*
X129811905Y-81536723D02*
X129764286Y-81346247D01*
X129764286Y-81346247D02*
X129764286Y-81203390D01*
X129764286Y-81203390D02*
X129811905Y-81012914D01*
X129811905Y-81012914D02*
X129859524Y-80917676D01*
X129859524Y-80917676D02*
X129954762Y-80822438D01*
X129954762Y-80822438D02*
X130097619Y-80774819D01*
X130097619Y-80774819D02*
X130192857Y-80774819D01*
X130192857Y-80774819D02*
X130335714Y-80822438D01*
X130335714Y-80822438D02*
X130383333Y-80870057D01*
X130716667Y-80774819D02*
X131335714Y-80774819D01*
X131335714Y-80774819D02*
X131002381Y-81155771D01*
X131002381Y-81155771D02*
X131145238Y-81155771D01*
X131145238Y-81155771D02*
X131240476Y-81203390D01*
X131240476Y-81203390D02*
X131288095Y-81251009D01*
X131288095Y-81251009D02*
X131335714Y-81346247D01*
X131335714Y-81346247D02*
X131335714Y-81584342D01*
X131335714Y-81584342D02*
X131288095Y-81679580D01*
X131288095Y-81679580D02*
X131240476Y-81727200D01*
X131240476Y-81727200D02*
X131145238Y-81774819D01*
X131145238Y-81774819D02*
X130859524Y-81774819D01*
X130859524Y-81774819D02*
X130764286Y-81727200D01*
X130764286Y-81727200D02*
X130716667Y-81679580D01*
X146166667Y-40357200D02*
X146309524Y-40404819D01*
X146309524Y-40404819D02*
X146547619Y-40404819D01*
X146547619Y-40404819D02*
X146642857Y-40357200D01*
X146642857Y-40357200D02*
X146690476Y-40309580D01*
X146690476Y-40309580D02*
X146738095Y-40214342D01*
X146738095Y-40214342D02*
X146738095Y-40119104D01*
X146738095Y-40119104D02*
X146690476Y-40023866D01*
X146690476Y-40023866D02*
X146642857Y-39976247D01*
X146642857Y-39976247D02*
X146547619Y-39928628D01*
X146547619Y-39928628D02*
X146357143Y-39881009D01*
X146357143Y-39881009D02*
X146261905Y-39833390D01*
X146261905Y-39833390D02*
X146214286Y-39785771D01*
X146214286Y-39785771D02*
X146166667Y-39690533D01*
X146166667Y-39690533D02*
X146166667Y-39595295D01*
X146166667Y-39595295D02*
X146214286Y-39500057D01*
X146214286Y-39500057D02*
X146261905Y-39452438D01*
X146261905Y-39452438D02*
X146357143Y-39404819D01*
X146357143Y-39404819D02*
X146595238Y-39404819D01*
X146595238Y-39404819D02*
X146738095Y-39452438D01*
X147071429Y-39404819D02*
X147309524Y-40404819D01*
X147309524Y-40404819D02*
X147500000Y-39690533D01*
X147500000Y-39690533D02*
X147690476Y-40404819D01*
X147690476Y-40404819D02*
X147928572Y-39404819D01*
X148833333Y-40404819D02*
X148261905Y-40404819D01*
X148547619Y-40404819D02*
X148547619Y-39404819D01*
X148547619Y-39404819D02*
X148452381Y-39547676D01*
X148452381Y-39547676D02*
X148357143Y-39642914D01*
X148357143Y-39642914D02*
X148261905Y-39690533D01*
X155666667Y-87857200D02*
X155809524Y-87904819D01*
X155809524Y-87904819D02*
X156047619Y-87904819D01*
X156047619Y-87904819D02*
X156142857Y-87857200D01*
X156142857Y-87857200D02*
X156190476Y-87809580D01*
X156190476Y-87809580D02*
X156238095Y-87714342D01*
X156238095Y-87714342D02*
X156238095Y-87619104D01*
X156238095Y-87619104D02*
X156190476Y-87523866D01*
X156190476Y-87523866D02*
X156142857Y-87476247D01*
X156142857Y-87476247D02*
X156047619Y-87428628D01*
X156047619Y-87428628D02*
X155857143Y-87381009D01*
X155857143Y-87381009D02*
X155761905Y-87333390D01*
X155761905Y-87333390D02*
X155714286Y-87285771D01*
X155714286Y-87285771D02*
X155666667Y-87190533D01*
X155666667Y-87190533D02*
X155666667Y-87095295D01*
X155666667Y-87095295D02*
X155714286Y-87000057D01*
X155714286Y-87000057D02*
X155761905Y-86952438D01*
X155761905Y-86952438D02*
X155857143Y-86904819D01*
X155857143Y-86904819D02*
X156095238Y-86904819D01*
X156095238Y-86904819D02*
X156238095Y-86952438D01*
X156571429Y-86904819D02*
X156809524Y-87904819D01*
X156809524Y-87904819D02*
X157000000Y-87190533D01*
X157000000Y-87190533D02*
X157190476Y-87904819D01*
X157190476Y-87904819D02*
X157428572Y-86904819D01*
X158285714Y-86904819D02*
X157809524Y-86904819D01*
X157809524Y-86904819D02*
X157761905Y-87381009D01*
X157761905Y-87381009D02*
X157809524Y-87333390D01*
X157809524Y-87333390D02*
X157904762Y-87285771D01*
X157904762Y-87285771D02*
X158142857Y-87285771D01*
X158142857Y-87285771D02*
X158238095Y-87333390D01*
X158238095Y-87333390D02*
X158285714Y-87381009D01*
X158285714Y-87381009D02*
X158333333Y-87476247D01*
X158333333Y-87476247D02*
X158333333Y-87714342D01*
X158333333Y-87714342D02*
X158285714Y-87809580D01*
X158285714Y-87809580D02*
X158238095Y-87857200D01*
X158238095Y-87857200D02*
X158142857Y-87904819D01*
X158142857Y-87904819D02*
X157904762Y-87904819D01*
X157904762Y-87904819D02*
X157809524Y-87857200D01*
X157809524Y-87857200D02*
X157761905Y-87809580D01*
X120333333Y-73679580D02*
X120285714Y-73727200D01*
X120285714Y-73727200D02*
X120142857Y-73774819D01*
X120142857Y-73774819D02*
X120047619Y-73774819D01*
X120047619Y-73774819D02*
X119904762Y-73727200D01*
X119904762Y-73727200D02*
X119809524Y-73631961D01*
X119809524Y-73631961D02*
X119761905Y-73536723D01*
X119761905Y-73536723D02*
X119714286Y-73346247D01*
X119714286Y-73346247D02*
X119714286Y-73203390D01*
X119714286Y-73203390D02*
X119761905Y-73012914D01*
X119761905Y-73012914D02*
X119809524Y-72917676D01*
X119809524Y-72917676D02*
X119904762Y-72822438D01*
X119904762Y-72822438D02*
X120047619Y-72774819D01*
X120047619Y-72774819D02*
X120142857Y-72774819D01*
X120142857Y-72774819D02*
X120285714Y-72822438D01*
X120285714Y-72822438D02*
X120333333Y-72870057D01*
X121190476Y-72774819D02*
X121000000Y-72774819D01*
X121000000Y-72774819D02*
X120904762Y-72822438D01*
X120904762Y-72822438D02*
X120857143Y-72870057D01*
X120857143Y-72870057D02*
X120761905Y-73012914D01*
X120761905Y-73012914D02*
X120714286Y-73203390D01*
X120714286Y-73203390D02*
X120714286Y-73584342D01*
X120714286Y-73584342D02*
X120761905Y-73679580D01*
X120761905Y-73679580D02*
X120809524Y-73727200D01*
X120809524Y-73727200D02*
X120904762Y-73774819D01*
X120904762Y-73774819D02*
X121095238Y-73774819D01*
X121095238Y-73774819D02*
X121190476Y-73727200D01*
X121190476Y-73727200D02*
X121238095Y-73679580D01*
X121238095Y-73679580D02*
X121285714Y-73584342D01*
X121285714Y-73584342D02*
X121285714Y-73346247D01*
X121285714Y-73346247D02*
X121238095Y-73251009D01*
X121238095Y-73251009D02*
X121190476Y-73203390D01*
X121190476Y-73203390D02*
X121095238Y-73155771D01*
X121095238Y-73155771D02*
X120904762Y-73155771D01*
X120904762Y-73155771D02*
X120809524Y-73203390D01*
X120809524Y-73203390D02*
X120761905Y-73251009D01*
X120761905Y-73251009D02*
X120714286Y-73346247D01*
X137833333Y-67804819D02*
X137500000Y-67328628D01*
X137261905Y-67804819D02*
X137261905Y-66804819D01*
X137261905Y-66804819D02*
X137642857Y-66804819D01*
X137642857Y-66804819D02*
X137738095Y-66852438D01*
X137738095Y-66852438D02*
X137785714Y-66900057D01*
X137785714Y-66900057D02*
X137833333Y-66995295D01*
X137833333Y-66995295D02*
X137833333Y-67138152D01*
X137833333Y-67138152D02*
X137785714Y-67233390D01*
X137785714Y-67233390D02*
X137738095Y-67281009D01*
X137738095Y-67281009D02*
X137642857Y-67328628D01*
X137642857Y-67328628D02*
X137261905Y-67328628D01*
X138785714Y-67804819D02*
X138214286Y-67804819D01*
X138500000Y-67804819D02*
X138500000Y-66804819D01*
X138500000Y-66804819D02*
X138404762Y-66947676D01*
X138404762Y-66947676D02*
X138309524Y-67042914D01*
X138309524Y-67042914D02*
X138214286Y-67090533D01*
X119629580Y-83166666D02*
X119677200Y-83214285D01*
X119677200Y-83214285D02*
X119724819Y-83357142D01*
X119724819Y-83357142D02*
X119724819Y-83452380D01*
X119724819Y-83452380D02*
X119677200Y-83595237D01*
X119677200Y-83595237D02*
X119581961Y-83690475D01*
X119581961Y-83690475D02*
X119486723Y-83738094D01*
X119486723Y-83738094D02*
X119296247Y-83785713D01*
X119296247Y-83785713D02*
X119153390Y-83785713D01*
X119153390Y-83785713D02*
X118962914Y-83738094D01*
X118962914Y-83738094D02*
X118867676Y-83690475D01*
X118867676Y-83690475D02*
X118772438Y-83595237D01*
X118772438Y-83595237D02*
X118724819Y-83452380D01*
X118724819Y-83452380D02*
X118724819Y-83357142D01*
X118724819Y-83357142D02*
X118772438Y-83214285D01*
X118772438Y-83214285D02*
X118820057Y-83166666D01*
X118724819Y-82833332D02*
X118724819Y-82166666D01*
X118724819Y-82166666D02*
X119724819Y-82595237D01*
X116704819Y-57301904D02*
X117514342Y-57301904D01*
X117514342Y-57301904D02*
X117609580Y-57254285D01*
X117609580Y-57254285D02*
X117657200Y-57206666D01*
X117657200Y-57206666D02*
X117704819Y-57111428D01*
X117704819Y-57111428D02*
X117704819Y-56920952D01*
X117704819Y-56920952D02*
X117657200Y-56825714D01*
X117657200Y-56825714D02*
X117609580Y-56778095D01*
X117609580Y-56778095D02*
X117514342Y-56730476D01*
X117514342Y-56730476D02*
X116704819Y-56730476D01*
X117704819Y-55730476D02*
X117704819Y-56301904D01*
X117704819Y-56016190D02*
X116704819Y-56016190D01*
X116704819Y-56016190D02*
X116847676Y-56111428D01*
X116847676Y-56111428D02*
X116942914Y-56206666D01*
X116942914Y-56206666D02*
X116990533Y-56301904D01*
X155666667Y-50357200D02*
X155809524Y-50404819D01*
X155809524Y-50404819D02*
X156047619Y-50404819D01*
X156047619Y-50404819D02*
X156142857Y-50357200D01*
X156142857Y-50357200D02*
X156190476Y-50309580D01*
X156190476Y-50309580D02*
X156238095Y-50214342D01*
X156238095Y-50214342D02*
X156238095Y-50119104D01*
X156238095Y-50119104D02*
X156190476Y-50023866D01*
X156190476Y-50023866D02*
X156142857Y-49976247D01*
X156142857Y-49976247D02*
X156047619Y-49928628D01*
X156047619Y-49928628D02*
X155857143Y-49881009D01*
X155857143Y-49881009D02*
X155761905Y-49833390D01*
X155761905Y-49833390D02*
X155714286Y-49785771D01*
X155714286Y-49785771D02*
X155666667Y-49690533D01*
X155666667Y-49690533D02*
X155666667Y-49595295D01*
X155666667Y-49595295D02*
X155714286Y-49500057D01*
X155714286Y-49500057D02*
X155761905Y-49452438D01*
X155761905Y-49452438D02*
X155857143Y-49404819D01*
X155857143Y-49404819D02*
X156095238Y-49404819D01*
X156095238Y-49404819D02*
X156238095Y-49452438D01*
X156571429Y-49404819D02*
X156809524Y-50404819D01*
X156809524Y-50404819D02*
X157000000Y-49690533D01*
X157000000Y-49690533D02*
X157190476Y-50404819D01*
X157190476Y-50404819D02*
X157428572Y-49404819D01*
X157761905Y-49500057D02*
X157809524Y-49452438D01*
X157809524Y-49452438D02*
X157904762Y-49404819D01*
X157904762Y-49404819D02*
X158142857Y-49404819D01*
X158142857Y-49404819D02*
X158238095Y-49452438D01*
X158238095Y-49452438D02*
X158285714Y-49500057D01*
X158285714Y-49500057D02*
X158333333Y-49595295D01*
X158333333Y-49595295D02*
X158333333Y-49690533D01*
X158333333Y-49690533D02*
X158285714Y-49833390D01*
X158285714Y-49833390D02*
X157714286Y-50404819D01*
X157714286Y-50404819D02*
X158333333Y-50404819D01*
X155686667Y-63607200D02*
X155829524Y-63654819D01*
X155829524Y-63654819D02*
X156067619Y-63654819D01*
X156067619Y-63654819D02*
X156162857Y-63607200D01*
X156162857Y-63607200D02*
X156210476Y-63559580D01*
X156210476Y-63559580D02*
X156258095Y-63464342D01*
X156258095Y-63464342D02*
X156258095Y-63369104D01*
X156258095Y-63369104D02*
X156210476Y-63273866D01*
X156210476Y-63273866D02*
X156162857Y-63226247D01*
X156162857Y-63226247D02*
X156067619Y-63178628D01*
X156067619Y-63178628D02*
X155877143Y-63131009D01*
X155877143Y-63131009D02*
X155781905Y-63083390D01*
X155781905Y-63083390D02*
X155734286Y-63035771D01*
X155734286Y-63035771D02*
X155686667Y-62940533D01*
X155686667Y-62940533D02*
X155686667Y-62845295D01*
X155686667Y-62845295D02*
X155734286Y-62750057D01*
X155734286Y-62750057D02*
X155781905Y-62702438D01*
X155781905Y-62702438D02*
X155877143Y-62654819D01*
X155877143Y-62654819D02*
X156115238Y-62654819D01*
X156115238Y-62654819D02*
X156258095Y-62702438D01*
X156591429Y-62654819D02*
X156829524Y-63654819D01*
X156829524Y-63654819D02*
X157020000Y-62940533D01*
X157020000Y-62940533D02*
X157210476Y-63654819D01*
X157210476Y-63654819D02*
X157448572Y-62654819D01*
X157734286Y-62654819D02*
X158353333Y-62654819D01*
X158353333Y-62654819D02*
X158020000Y-63035771D01*
X158020000Y-63035771D02*
X158162857Y-63035771D01*
X158162857Y-63035771D02*
X158258095Y-63083390D01*
X158258095Y-63083390D02*
X158305714Y-63131009D01*
X158305714Y-63131009D02*
X158353333Y-63226247D01*
X158353333Y-63226247D02*
X158353333Y-63464342D01*
X158353333Y-63464342D02*
X158305714Y-63559580D01*
X158305714Y-63559580D02*
X158258095Y-63607200D01*
X158258095Y-63607200D02*
X158162857Y-63654819D01*
X158162857Y-63654819D02*
X157877143Y-63654819D01*
X157877143Y-63654819D02*
X157781905Y-63607200D01*
X157781905Y-63607200D02*
X157734286Y-63559580D01*
X108346666Y-64939819D02*
X108346666Y-65654104D01*
X108346666Y-65654104D02*
X108299047Y-65796961D01*
X108299047Y-65796961D02*
X108203809Y-65892200D01*
X108203809Y-65892200D02*
X108060952Y-65939819D01*
X108060952Y-65939819D02*
X107965714Y-65939819D01*
X109346666Y-65939819D02*
X108775238Y-65939819D01*
X109060952Y-65939819D02*
X109060952Y-64939819D01*
X109060952Y-64939819D02*
X108965714Y-65082676D01*
X108965714Y-65082676D02*
X108870476Y-65177914D01*
X108870476Y-65177914D02*
X108775238Y-65225533D01*
X155686667Y-75607200D02*
X155829524Y-75654819D01*
X155829524Y-75654819D02*
X156067619Y-75654819D01*
X156067619Y-75654819D02*
X156162857Y-75607200D01*
X156162857Y-75607200D02*
X156210476Y-75559580D01*
X156210476Y-75559580D02*
X156258095Y-75464342D01*
X156258095Y-75464342D02*
X156258095Y-75369104D01*
X156258095Y-75369104D02*
X156210476Y-75273866D01*
X156210476Y-75273866D02*
X156162857Y-75226247D01*
X156162857Y-75226247D02*
X156067619Y-75178628D01*
X156067619Y-75178628D02*
X155877143Y-75131009D01*
X155877143Y-75131009D02*
X155781905Y-75083390D01*
X155781905Y-75083390D02*
X155734286Y-75035771D01*
X155734286Y-75035771D02*
X155686667Y-74940533D01*
X155686667Y-74940533D02*
X155686667Y-74845295D01*
X155686667Y-74845295D02*
X155734286Y-74750057D01*
X155734286Y-74750057D02*
X155781905Y-74702438D01*
X155781905Y-74702438D02*
X155877143Y-74654819D01*
X155877143Y-74654819D02*
X156115238Y-74654819D01*
X156115238Y-74654819D02*
X156258095Y-74702438D01*
X156591429Y-74654819D02*
X156829524Y-75654819D01*
X156829524Y-75654819D02*
X157020000Y-74940533D01*
X157020000Y-74940533D02*
X157210476Y-75654819D01*
X157210476Y-75654819D02*
X157448572Y-74654819D01*
X158258095Y-74988152D02*
X158258095Y-75654819D01*
X158020000Y-74607200D02*
X157781905Y-75321485D01*
X157781905Y-75321485D02*
X158400952Y-75321485D01*
X130333333Y-76804819D02*
X130000000Y-76328628D01*
X129761905Y-76804819D02*
X129761905Y-75804819D01*
X129761905Y-75804819D02*
X130142857Y-75804819D01*
X130142857Y-75804819D02*
X130238095Y-75852438D01*
X130238095Y-75852438D02*
X130285714Y-75900057D01*
X130285714Y-75900057D02*
X130333333Y-75995295D01*
X130333333Y-75995295D02*
X130333333Y-76138152D01*
X130333333Y-76138152D02*
X130285714Y-76233390D01*
X130285714Y-76233390D02*
X130238095Y-76281009D01*
X130238095Y-76281009D02*
X130142857Y-76328628D01*
X130142857Y-76328628D02*
X129761905Y-76328628D01*
X130666667Y-75804819D02*
X131285714Y-75804819D01*
X131285714Y-75804819D02*
X130952381Y-76185771D01*
X130952381Y-76185771D02*
X131095238Y-76185771D01*
X131095238Y-76185771D02*
X131190476Y-76233390D01*
X131190476Y-76233390D02*
X131238095Y-76281009D01*
X131238095Y-76281009D02*
X131285714Y-76376247D01*
X131285714Y-76376247D02*
X131285714Y-76614342D01*
X131285714Y-76614342D02*
X131238095Y-76709580D01*
X131238095Y-76709580D02*
X131190476Y-76757200D01*
X131190476Y-76757200D02*
X131095238Y-76804819D01*
X131095238Y-76804819D02*
X130809524Y-76804819D01*
X130809524Y-76804819D02*
X130714286Y-76757200D01*
X130714286Y-76757200D02*
X130666667Y-76709580D01*
%TO.C,R2*%
D11*
X137772936Y-77265000D02*
X138227064Y-77265000D01*
X137772936Y-78735000D02*
X138227064Y-78735000D01*
%TO.C,U2*%
X126930000Y-88050000D02*
X126930000Y-88320000D01*
X126930000Y-94950000D02*
X126930000Y-94680000D01*
X133350000Y-88050000D02*
X126930000Y-88050000D01*
X133350000Y-94950000D02*
X126930000Y-94950000D01*
X125200000Y-88360000D02*
X124860000Y-87890000D01*
X125540000Y-87890000D01*
X125200000Y-88360000D01*
G36*
X125200000Y-88360000D02*
G01*
X124860000Y-87890000D01*
X125540000Y-87890000D01*
X125200000Y-88360000D01*
G37*
%TO.C,C3*%
X130288748Y-82265000D02*
X130811252Y-82265000D01*
X130288748Y-83735000D02*
X130811252Y-83735000D01*
%TO.C,SW1*%
X144270000Y-40770000D02*
X150730000Y-40770000D01*
X144270000Y-40800000D02*
X144270000Y-40770000D01*
X144270000Y-42700000D02*
X144270000Y-45300000D01*
X144270000Y-47230000D02*
X144270000Y-47200000D01*
X144270000Y-47230000D02*
X150730000Y-47230000D01*
X150730000Y-40770000D02*
X150730000Y-40800000D01*
X150730000Y-42700000D02*
X150730000Y-45300000D01*
X150730000Y-47230000D02*
X150730000Y-47200000D01*
%TO.C,SW5*%
X153770000Y-88270000D02*
X160230000Y-88270000D01*
X153770000Y-88300000D02*
X153770000Y-88270000D01*
X153770000Y-90200000D02*
X153770000Y-92800000D01*
X153770000Y-94730000D02*
X153770000Y-94700000D01*
X153770000Y-94730000D02*
X160230000Y-94730000D01*
X160230000Y-88270000D02*
X160230000Y-88300000D01*
X160230000Y-90200000D02*
X160230000Y-92800000D01*
X160230000Y-94730000D02*
X160230000Y-94700000D01*
%TO.C,C6*%
X120238748Y-74265000D02*
X120761252Y-74265000D01*
X120238748Y-75735000D02*
X120761252Y-75735000D01*
%TO.C,R1*%
X137772936Y-68265000D02*
X138227064Y-68265000D01*
X137772936Y-69735000D02*
X138227064Y-69735000D01*
%TO.C,C7*%
X120215000Y-83261252D02*
X120215000Y-82738748D01*
X121685000Y-83261252D02*
X121685000Y-82738748D01*
%TO.C,U1*%
X118550000Y-32240000D02*
X118550000Y-38440000D01*
X118550000Y-32240000D02*
X136950000Y-32240000D01*
X118550000Y-57090000D02*
X118550000Y-58090000D01*
X118550000Y-58090000D02*
X120050000Y-58090000D01*
X136950000Y-32240000D02*
X136950000Y-38440000D01*
X136950000Y-58090000D02*
X135450000Y-58090000D01*
X136950000Y-58090000D02*
X136950000Y-57090000D01*
X118550000Y-39115000D02*
X118050000Y-39115000D01*
X118550000Y-38615000D01*
X118550000Y-39115000D01*
G36*
X118550000Y-39115000D02*
G01*
X118050000Y-39115000D01*
X118550000Y-38615000D01*
X118550000Y-39115000D01*
G37*
%TO.C,SW2*%
X153770000Y-50770000D02*
X160230000Y-50770000D01*
X153770000Y-50800000D02*
X153770000Y-50770000D01*
X153770000Y-52700000D02*
X153770000Y-55300000D01*
X153770000Y-57230000D02*
X153770000Y-57200000D01*
X153770000Y-57230000D02*
X160230000Y-57230000D01*
X160230000Y-50770000D02*
X160230000Y-50800000D01*
X160230000Y-52700000D02*
X160230000Y-55300000D01*
X160230000Y-57230000D02*
X160230000Y-57200000D01*
%TO.C,SW3*%
X153790000Y-64020000D02*
X160250000Y-64020000D01*
X153790000Y-64050000D02*
X153790000Y-64020000D01*
X153790000Y-65950000D02*
X153790000Y-68550000D01*
X153790000Y-70480000D02*
X153790000Y-70450000D01*
X153790000Y-70480000D02*
X160250000Y-70480000D01*
X160250000Y-64020000D02*
X160250000Y-64050000D01*
X160250000Y-65950000D02*
X160250000Y-68550000D01*
X160250000Y-70480000D02*
X160250000Y-70450000D01*
%TO.C,J1*%
X103980000Y-69230000D02*
X103980000Y-71230000D01*
X103980000Y-73130000D02*
X103980000Y-75030000D01*
X103980000Y-75030000D02*
X113380000Y-75030000D01*
X113380000Y-69230000D02*
X113380000Y-71230000D01*
X113380000Y-73130000D02*
X113380000Y-75030000D01*
%TO.C,SW4*%
X153790000Y-76020000D02*
X160250000Y-76020000D01*
X153790000Y-76050000D02*
X153790000Y-76020000D01*
X153790000Y-77950000D02*
X153790000Y-80550000D01*
X153790000Y-82480000D02*
X153790000Y-82450000D01*
X153790000Y-82480000D02*
X160250000Y-82480000D01*
X160250000Y-76020000D02*
X160250000Y-76050000D01*
X160250000Y-77950000D02*
X160250000Y-80550000D01*
X160250000Y-82480000D02*
X160250000Y-82450000D01*
%TO.C,R3*%
X130272936Y-77265000D02*
X130727064Y-77265000D01*
X130272936Y-78735000D02*
X130727064Y-78735000D01*
%TD*%
M02*
