%TF.GenerationSoftware,KiCad,Pcbnew,10.0.5*%
%TF.CreationDate,2026-08-16T16:45:00+01:00*%
%TF.ProjectId,StudyWithKey,53747564-7957-4697-9468-4b65792e6b69,rev?*%
%TF.SameCoordinates,Original*%
%TF.FileFunction,Paste,Top*%
%TF.FilePolarity,Positive*%
%FSLAX46Y46*%
G04 Gerber Fmt 4.6, Leading zero omitted, Abs format (unit mm)*
G04 Created by KiCad (PCBNEW 10.0.5) date 2026-08-16 16:45:00*
%MOMM*%
%LPD*%
G01*
G04 APERTURE LIST*
G04 Aperture macros list*
%AMRoundRect*
0 Rectangle with rounded corners*
0 $1 Rounding radius*
0 $2 $3 $4 $5 $6 $7 $8 $9 X,Y pos of 4 corners*
0 Add a 4 corners polygon primitive as box body*
4,1,4,$2,$3,$4,$5,$6,$7,$8,$9,$2,$3,0*
0 Add four circle primitives for the rounded corners*
1,1,$1+$1,$2,$3*
1,1,$1+$1,$4,$5*
1,1,$1+$1,$6,$7*
1,1,$1+$1,$8,$9*
0 Add four rect primitives between the rounded corners*
20,1,$1+$1,$2,$3,$4,$5,0*
20,1,$1+$1,$4,$5,$6,$7,0*
20,1,$1+$1,$6,$7,$8,$9,0*
20,1,$1+$1,$8,$9,$2,$3,0*%
G04 Aperture macros list end*
%ADD10RoundRect,0.250000X-0.262500X-0.450000X0.262500X-0.450000X0.262500X0.450000X-0.262500X0.450000X0*%
%ADD11RoundRect,0.250000X-1.275000X-1.125000X1.275000X-1.125000X1.275000X1.125000X-1.275000X1.125000X0*%
%ADD12RoundRect,0.250000X-0.850000X-0.350000X0.850000X-0.350000X0.850000X0.350000X-0.850000X0.350000X0*%
%ADD13RoundRect,0.250000X-0.250000X-0.475000X0.250000X-0.475000X0.250000X0.475000X-0.250000X0.475000X0*%
%ADD14RoundRect,0.250000X-0.525000X-0.400000X0.525000X-0.400000X0.525000X0.400000X-0.525000X0.400000X0*%
%ADD15RoundRect,0.250000X0.475000X-0.250000X0.475000X0.250000X-0.475000X0.250000X-0.475000X-0.250000X0*%
%ADD16R,0.900000X0.900000*%
%ADD17R,1.500000X0.900000*%
%ADD18R,0.900000X1.500000*%
%ADD19RoundRect,0.150000X-0.150000X-0.575000X0.150000X-0.575000X0.150000X0.575000X-0.150000X0.575000X0*%
%ADD20RoundRect,0.075000X-0.075000X-0.650000X0.075000X-0.650000X0.075000X0.650000X-0.075000X0.650000X0*%
G04 APERTURE END LIST*
D10*
%TO.C,R2*%
X137087500Y-78000000D03*
X138912500Y-78000000D03*
%TD*%
D11*
%TO.C,U2*%
X129825000Y-89975000D03*
X129825000Y-93025000D03*
X133175000Y-89975000D03*
X133175000Y-93025000D03*
D12*
X125200000Y-89220000D03*
X125200000Y-91500000D03*
X125200000Y-93780000D03*
%TD*%
D13*
%TO.C,C3*%
X129600000Y-83000000D03*
X131500000Y-83000000D03*
%TD*%
D14*
%TO.C,SW1*%
X143520000Y-41750000D03*
X151480000Y-41750000D03*
X143520000Y-46250000D03*
X151480000Y-46250000D03*
%TD*%
%TO.C,SW5*%
X153020000Y-89250000D03*
X160980000Y-89250000D03*
X153020000Y-93750000D03*
X160980000Y-93750000D03*
%TD*%
D13*
%TO.C,C6*%
X119550000Y-75000000D03*
X121450000Y-75000000D03*
%TD*%
D10*
%TO.C,R1*%
X137087500Y-69000000D03*
X138912500Y-69000000D03*
%TD*%
D15*
%TO.C,C7*%
X120950000Y-83950000D03*
X120950000Y-82050000D03*
%TD*%
D16*
%TO.C,U1*%
X124850000Y-46200000D03*
X124850000Y-47600000D03*
X124850000Y-49000000D03*
X126250000Y-46200000D03*
X126250000Y-47600000D03*
X126250000Y-49000000D03*
X127650000Y-46200000D03*
X127650000Y-47600000D03*
X127650000Y-49000000D03*
D17*
X119000000Y-39880000D03*
X119000000Y-41150000D03*
X119000000Y-42420000D03*
X119000000Y-43690000D03*
X119000000Y-44960000D03*
X119000000Y-46230000D03*
X119000000Y-47500000D03*
X119000000Y-48770000D03*
X119000000Y-50040000D03*
X119000000Y-51310000D03*
X119000000Y-52580000D03*
X119000000Y-53850000D03*
X119000000Y-55120000D03*
X119000000Y-56390000D03*
D18*
X120765000Y-57640000D03*
X122035000Y-57640000D03*
X123305000Y-57640000D03*
X124575000Y-57640000D03*
X125845000Y-57640000D03*
X127115000Y-57640000D03*
X128385000Y-57640000D03*
X129655000Y-57640000D03*
X130925000Y-57640000D03*
X132195000Y-57640000D03*
X133465000Y-57640000D03*
X134735000Y-57640000D03*
D17*
X136500000Y-56390000D03*
X136500000Y-55120000D03*
X136500000Y-53850000D03*
X136500000Y-52580000D03*
X136500000Y-51310000D03*
X136500000Y-50040000D03*
X136500000Y-48770000D03*
X136500000Y-47500000D03*
X136500000Y-46230000D03*
X136500000Y-44960000D03*
X136500000Y-43690000D03*
X136500000Y-42420000D03*
X136500000Y-41150000D03*
X136500000Y-39880000D03*
%TD*%
D14*
%TO.C,SW2*%
X153020000Y-51750000D03*
X160980000Y-51750000D03*
X153020000Y-56250000D03*
X160980000Y-56250000D03*
%TD*%
%TO.C,SW3*%
X153040000Y-65000000D03*
X161000000Y-65000000D03*
X153040000Y-69500000D03*
X161000000Y-69500000D03*
%TD*%
D19*
%TO.C,J1*%
X105430000Y-67085000D03*
X106230000Y-67085000D03*
D20*
X107430000Y-67085000D03*
X108430000Y-67085000D03*
X108930000Y-67085000D03*
X109930000Y-67085000D03*
D19*
X111130000Y-67085000D03*
X111930000Y-67085000D03*
X111930000Y-67085000D03*
X111130000Y-67085000D03*
D20*
X110430000Y-67085000D03*
X109430000Y-67085000D03*
X107930000Y-67085000D03*
X106930000Y-67085000D03*
D19*
X106230000Y-67085000D03*
X105430000Y-67085000D03*
%TD*%
D14*
%TO.C,SW4*%
X153040000Y-77000000D03*
X161000000Y-77000000D03*
X153040000Y-81500000D03*
X161000000Y-81500000D03*
%TD*%
D10*
%TO.C,R3*%
X129587500Y-78000000D03*
X131412500Y-78000000D03*
%TD*%
M02*
